<svg xmlns="http://www.w3.org/2000/svg" viewBox="0 0 760 384" width="760" height="384" role="img">
<rect x="0" y="0" width="760" height="999" rx="0" ry="0" fill="#0d1117"/>
<text x="28" y="40" font-family="'Segoe UI',Helvetica,Arial,sans-serif" font-size="22" fill="#e6edf3" text-anchor="start" font-weight="700">Le manopole (encoder): gira e premi</text>
<text x="28" y="64" font-family="'Segoe UI',Helvetica,Arial,sans-serif" font-size="13.5" fill="#9aa4b2" text-anchor="start" font-weight="400">Ogni manopola si gira (cursore/valori) e si preme (azioni). Versione a 4 encoder.</text>
<line x1="28" y1="78" x2="732" y2="78" stroke="#30363d" stroke-width="1" stroke-linecap="round"/>
<path d="M 54.0 162 A 62 62 0 0 1 178.0 162" fill="none" stroke="#9aa4b2" stroke-width="1.5" opacity="0.7"/>
<polygon points="178.0,162 171.0,156 172.0,166" fill="#9aa4b2"/>
<polygon points="54.0,162 60.0,156 61.0,166" fill="#9aa4b2"/>
<text x="116.0" y="98" font-family="'Segoe UI',Helvetica,Arial,sans-serif" font-size="11.5" fill="#9aa4b2" text-anchor="middle" font-weight="400">gira</text>
<circle cx="116.0" cy="168" r="52" fill="#161b22" stroke="#30363d" stroke-width="1.5"/>
<circle cx="116.0" cy="168" r="46" fill="#222a35" stroke="#3A6BE8" stroke-width="2.5"/>
<circle cx="116.0" cy="168" r="34" fill="#2c3543"/>
<line x1="116.0" y1="128" x2="116.0" y2="140" stroke="#3A6BE8" stroke-width="3" stroke-linecap="round"/>
<circle cx="116.0" cy="168" r="10" fill="#3A6BE8" opacity="0.25"/>
<circle cx="116.0" cy="168" r="5" fill="#3A6BE8"/>
<text x="116.0" y="172" font-family="'Segoe UI',Helvetica,Arial,sans-serif" font-size="10" fill="#e6edf3" text-anchor="start" font-weight="400"></text>
<text x="116.0" y="240" font-family="'Segoe UI',Helvetica,Arial,sans-serif" font-size="13.5" fill="#e6edf3" text-anchor="middle" font-weight="700">SINISTRA</text>
<text x="116.0" y="258" font-family="'Segoe UI',Helvetica,Arial,sans-serif" font-size="11.5" fill="#9aa4b2" text-anchor="middle" font-weight="400">cursore ↑↓</text>
<rect x="46.0" y="274" width="140.0" height="21" rx="6" ry="6" fill="#1b2230" stroke="#30363d" stroke-width="1"/>
<text x="116.0" y="289" font-family="'Segoe UI',Helvetica,Arial,sans-serif" font-size="11" fill="#e6edf3" text-anchor="middle" font-weight="400">click → cancella nota</text>
<rect x="46.0" y="300" width="140.0" height="21" rx="6" ry="6" fill="#1b2230" stroke="#30363d" stroke-width="1"/>
<text x="116.0" y="315" font-family="'Segoe UI',Helvetica,Arial,sans-serif" font-size="11" fill="#e6edf3" text-anchor="middle" font-weight="400">2× click → modalità Single</text>
<path d="M 230.0 162 A 62 62 0 0 1 354.0 162" fill="none" stroke="#9aa4b2" stroke-width="1.5" opacity="0.7"/>
<polygon points="354.0,162 347.0,156 348.0,166" fill="#9aa4b2"/>
<polygon points="230.0,162 236.0,156 237.0,166" fill="#9aa4b2"/>
<text x="292.0" y="98" font-family="'Segoe UI',Helvetica,Arial,sans-serif" font-size="11.5" fill="#9aa4b2" text-anchor="middle" font-weight="400">gira</text>
<circle cx="292.0" cy="168" r="52" fill="#161b22" stroke="#30363d" stroke-width="1.5"/>
<circle cx="292.0" cy="168" r="46" fill="#222a35" stroke="#36C24A" stroke-width="2.5"/>
<circle cx="292.0" cy="168" r="34" fill="#2c3543"/>
<line x1="292.0" y1="128" x2="292.0" y2="140" stroke="#36C24A" stroke-width="3" stroke-linecap="round"/>
<circle cx="292.0" cy="168" r="10" fill="#36C24A" opacity="0.25"/>
<circle cx="292.0" cy="168" r="5" fill="#36C24A"/>
<text x="292.0" y="172" font-family="'Segoe UI',Helvetica,Arial,sans-serif" font-size="10" fill="#e6edf3" text-anchor="start" font-weight="400"></text>
<text x="292.0" y="240" font-family="'Segoe UI',Helvetica,Arial,sans-serif" font-size="13.5" fill="#e6edf3" text-anchor="middle" font-weight="700">CENTRALE-SX</text>
<text x="292.0" y="258" font-family="'Segoe UI',Helvetica,Arial,sans-serif" font-size="11.5" fill="#9aa4b2" text-anchor="middle" font-weight="400">pagina / BPM</text>
<rect x="222.0" y="274" width="140.0" height="21" rx="6" ry="6" fill="#1b2230" stroke="#30363d" stroke-width="1"/>
<text x="292.0" y="289" font-family="'Segoe UI',Helvetica,Arial,sans-serif" font-size="11" fill="#e6edf3" text-anchor="middle" font-weight="400">push → disegna nota</text>
<rect x="222.0" y="300" width="140.0" height="21" rx="6" ry="6" fill="#1b2230" stroke="#30363d" stroke-width="1"/>
<text x="292.0" y="315" font-family="'Segoe UI',Helvetica,Arial,sans-serif" font-size="11" fill="#e6edf3" text-anchor="middle" font-weight="400">hold → disegno continuo</text>
<path d="M 406.0 162 A 62 62 0 0 1 530.0 162" fill="none" stroke="#9aa4b2" stroke-width="1.5" opacity="0.7"/>
<polygon points="530.0,162 523.0,156 524.0,166" fill="#9aa4b2"/>
<polygon points="406.0,162 412.0,156 413.0,166" fill="#9aa4b2"/>
<text x="468.0" y="98" font-family="'Segoe UI',Helvetica,Arial,sans-serif" font-size="11.5" fill="#9aa4b2" text-anchor="middle" font-weight="400">gira</text>
<circle cx="468.0" cy="168" r="52" fill="#161b22" stroke="#30363d" stroke-width="1.5"/>
<circle cx="468.0" cy="168" r="46" fill="#222a35" stroke="#FF7A1A" stroke-width="2.5"/>
<circle cx="468.0" cy="168" r="34" fill="#2c3543"/>
<line x1="468.0" y1="128" x2="468.0" y2="140" stroke="#FF7A1A" stroke-width="3" stroke-linecap="round"/>
<circle cx="468.0" cy="168" r="10" fill="#FF7A1A" opacity="0.25"/>
<circle cx="468.0" cy="168" r="5" fill="#FF7A1A"/>
<text x="468.0" y="172" font-family="'Segoe UI',Helvetica,Arial,sans-serif" font-size="10" fill="#e6edf3" text-anchor="start" font-weight="400"></text>
<text x="468.0" y="240" font-family="'Segoe UI',Helvetica,Arial,sans-serif" font-size="13.5" fill="#e6edf3" text-anchor="middle" font-weight="700">CENTRALE-DX</text>
<text x="468.0" y="258" font-family="'Segoe UI',Helvetica,Arial,sans-serif" font-size="11.5" fill="#9aa4b2" text-anchor="middle" font-weight="400">filtro / seek</text>
<rect x="398.0" y="274" width="140.0" height="21" rx="6" ry="6" fill="#1b2230" stroke="#30363d" stroke-width="1"/>
<text x="468.0" y="289" font-family="'Segoe UI',Helvetica,Arial,sans-serif" font-size="11" fill="#e6edf3" text-anchor="middle" font-weight="400">click → Play / Pausa</text>
<rect x="398.0" y="300" width="140.0" height="21" rx="6" ry="6" fill="#1b2230" stroke="#30363d" stroke-width="1"/>
<text x="468.0" y="315" font-family="'Segoe UI',Helvetica,Arial,sans-serif" font-size="11" fill="#e6edf3" text-anchor="middle" font-weight="400">hold → Volume / BPM</text>
<path d="M 582.0 162 A 62 62 0 0 1 706.0 162" fill="none" stroke="#9aa4b2" stroke-width="1.5" opacity="0.7"/>
<polygon points="706.0,162 699.0,156 700.0,166" fill="#9aa4b2"/>
<polygon points="582.0,162 588.0,156 589.0,166" fill="#9aa4b2"/>
<text x="644.0" y="98" font-family="'Segoe UI',Helvetica,Arial,sans-serif" font-size="11.5" fill="#9aa4b2" text-anchor="middle" font-weight="400">gira</text>
<circle cx="644.0" cy="168" r="52" fill="#161b22" stroke="#30363d" stroke-width="1.5"/>
<circle cx="644.0" cy="168" r="46" fill="#222a35" stroke="#E83AA6" stroke-width="2.5"/>
<circle cx="644.0" cy="168" r="34" fill="#2c3543"/>
<line x1="644.0" y1="128" x2="644.0" y2="140" stroke="#E83AA6" stroke-width="3" stroke-linecap="round"/>
<circle cx="644.0" cy="168" r="10" fill="#E83AA6" opacity="0.25"/>
<circle cx="644.0" cy="168" r="5" fill="#E83AA6"/>
<text x="644.0" y="172" font-family="'Segoe UI',Helvetica,Arial,sans-serif" font-size="10" fill="#e6edf3" text-anchor="start" font-weight="400"></text>
<text x="644.0" y="240" font-family="'Segoe UI',Helvetica,Arial,sans-serif" font-size="13.5" fill="#e6edf3" text-anchor="middle" font-weight="700">DESTRA</text>
<text x="644.0" y="258" font-family="'Segoe UI',Helvetica,Arial,sans-serif" font-size="11.5" fill="#9aa4b2" text-anchor="middle" font-weight="400">cursore ←→</text>
<rect x="574.0" y="274" width="140.0" height="21" rx="6" ry="6" fill="#1b2230" stroke="#30363d" stroke-width="1"/>
<text x="644.0" y="289" font-family="'Segoe UI',Helvetica,Arial,sans-serif" font-size="11" fill="#e6edf3" text-anchor="middle" font-weight="400">click → mute voce</text>
<rect x="574.0" y="300" width="140.0" height="21" rx="6" ry="6" fill="#1b2230" stroke="#30363d" stroke-width="1"/>
<text x="644.0" y="315" font-family="'Segoe UI',Helvetica,Arial,sans-serif" font-size="11" fill="#e6edf3" text-anchor="middle" font-weight="400">2× click → velocity</text>
</svg>
