<svg xmlns="http://www.w3.org/2000/svg" viewBox="0 0 760 420" width="760" height="420" role="img">
<rect x="0" y="0" width="760" height="999" rx="0" ry="0" fill="#0d1117"/>
<text x="28" y="40" font-family="'Segoe UI',Helvetica,Arial,sans-serif" font-size="22" fill="#e6edf3" text-anchor="start" font-weight="700">Le 3 manopole (encoder): gira e premi</text>
<text x="28" y="64" font-family="'Segoe UI',Helvetica,Arial,sans-serif" font-size="13.5" fill="#9aa4b2" text-anchor="start" font-weight="400">Versione a 3 encoder. Ogni manopola si gira (cursore/valori) e si preme (azioni).</text>
<line x1="28" y1="78" x2="732" y2="78" stroke="#30363d" stroke-width="1" stroke-linecap="round"/>
<path d="M 83.33333333333331 166 A 62 62 0 0 1 207.33333333333331 166" fill="none" stroke="#9aa4b2" stroke-width="1.5" opacity="0.7"/>
<polygon points="207.33333333333331,166 200.33333333333331,160 201.33333333333331,170" fill="#9aa4b2"/>
<polygon points="83.33333333333331,166 89.33333333333331,160 90.33333333333331,170" fill="#9aa4b2"/>
<text x="145.33333333333331" y="102" font-family="'Segoe UI',Helvetica,Arial,sans-serif" font-size="11.5" fill="#9aa4b2" text-anchor="middle" font-weight="400">gira</text>
<circle cx="145.33333333333331" cy="172" r="52" fill="#161b22" stroke="#30363d" stroke-width="1.5"/>
<circle cx="145.33333333333331" cy="172" r="46" fill="#222a35" stroke="#3A6BE8" stroke-width="2.5"/>
<circle cx="145.33333333333331" cy="172" r="34" fill="#2c3543"/>
<line x1="145.33333333333331" y1="132" x2="145.33333333333331" y2="144" stroke="#3A6BE8" stroke-width="3" stroke-linecap="round"/>
<circle cx="145.33333333333331" cy="172" r="10" fill="#3A6BE8" opacity="0.25"/>
<circle cx="145.33333333333331" cy="172" r="5" fill="#3A6BE8"/>
<text x="145.33333333333331" y="176" font-family="'Segoe UI',Helvetica,Arial,sans-serif" font-size="10" fill="#e6edf3" text-anchor="start" font-weight="400"></text>
<text x="145.33333333333331" y="244" font-family="'Segoe UI',Helvetica,Arial,sans-serif" font-size="13.5" fill="#e6edf3" text-anchor="middle" font-weight="700">SINISTRA</text>
<text x="145.33333333333331" y="262" font-family="'Segoe UI',Helvetica,Arial,sans-serif" font-size="11.5" fill="#9aa4b2" text-anchor="middle" font-weight="400">cursore ↑↓ · Volume</text>
<rect x="45.999999999999986" y="278" width="198.66666666666666" height="21" rx="6" ry="6" fill="#1b2230" stroke="#30363d" stroke-width="1"/>
<text x="145.33333333333331" y="293" font-family="'Segoe UI',Helvetica,Arial,sans-serif" font-size="11" fill="#e6edf3" text-anchor="middle" font-weight="400">click → cancella nota</text>
<rect x="45.999999999999986" y="304" width="198.66666666666666" height="21" rx="6" ry="6" fill="#1b2230" stroke="#30363d" stroke-width="1"/>
<text x="145.33333333333331" y="319" font-family="'Segoe UI',Helvetica,Arial,sans-serif" font-size="11" fill="#e6edf3" text-anchor="middle" font-weight="400">hold → cancella continuo</text>
<rect x="45.999999999999986" y="330" width="198.66666666666666" height="21" rx="6" ry="6" fill="#1b2230" stroke="#30363d" stroke-width="1"/>
<text x="145.33333333333331" y="345" font-family="'Segoe UI',Helvetica,Arial,sans-serif" font-size="11" fill="#e6edf3" text-anchor="middle" font-weight="400">2× click → Single</text>
<path d="M 317.99999999999994 166 A 62 62 0 0 1 441.99999999999994 166" fill="none" stroke="#9aa4b2" stroke-width="1.5" opacity="0.7"/>
<polygon points="441.99999999999994,166 434.99999999999994,160 435.99999999999994,170" fill="#9aa4b2"/>
<polygon points="317.99999999999994,166 323.99999999999994,160 324.99999999999994,170" fill="#9aa4b2"/>
<text x="379.99999999999994" y="102" font-family="'Segoe UI',Helvetica,Arial,sans-serif" font-size="11.5" fill="#9aa4b2" text-anchor="middle" font-weight="400">gira</text>
<circle cx="379.99999999999994" cy="172" r="52" fill="#161b22" stroke="#30363d" stroke-width="1.5"/>
<circle cx="379.99999999999994" cy="172" r="46" fill="#222a35" stroke="#36C24A" stroke-width="2.5"/>
<circle cx="379.99999999999994" cy="172" r="34" fill="#2c3543"/>
<line x1="379.99999999999994" y1="132" x2="379.99999999999994" y2="144" stroke="#36C24A" stroke-width="3" stroke-linecap="round"/>
<circle cx="379.99999999999994" cy="172" r="10" fill="#36C24A" opacity="0.25"/>
<circle cx="379.99999999999994" cy="172" r="5" fill="#36C24A"/>
<text x="379.99999999999994" y="176" font-family="'Segoe UI',Helvetica,Arial,sans-serif" font-size="10" fill="#e6edf3" text-anchor="start" font-weight="400"></text>
<text x="379.99999999999994" y="244" font-family="'Segoe UI',Helvetica,Arial,sans-serif" font-size="13.5" fill="#e6edf3" text-anchor="middle" font-weight="700">CENTRALE</text>
<text x="379.99999999999994" y="262" font-family="'Segoe UI',Helvetica,Arial,sans-serif" font-size="11.5" fill="#9aa4b2" text-anchor="middle" font-weight="400">pagina · BPM</text>
<rect x="280.66666666666663" y="278" width="198.66666666666666" height="21" rx="6" ry="6" fill="#1b2230" stroke="#30363d" stroke-width="1"/>
<text x="379.99999999999994" y="293" font-family="'Segoe UI',Helvetica,Arial,sans-serif" font-size="11" fill="#e6edf3" text-anchor="middle" font-weight="400">push → disegna · hold → paint</text>
<rect x="280.66666666666663" y="304" width="198.66666666666666" height="21" rx="6" ry="6" fill="#1b2230" stroke="#30363d" stroke-width="1"/>
<text x="379.99999999999994" y="319" font-family="'Segoe UI',Helvetica,Arial,sans-serif" font-size="11" fill="#e6edf3" text-anchor="middle" font-weight="400">2× click → Play / Pausa</text>
<rect x="280.66666666666663" y="330" width="198.66666666666666" height="21" rx="6" ry="6" fill="#1b2230" stroke="#30363d" stroke-width="1"/>
<text x="379.99999999999994" y="345" font-family="'Segoe UI',Helvetica,Arial,sans-serif" font-size="11" fill="#e6edf3" text-anchor="middle" font-weight="400">click → indietro/Vol·BPM</text>
<path d="M 552.6666666666666 166 A 62 62 0 0 1 676.6666666666666 166" fill="none" stroke="#9aa4b2" stroke-width="1.5" opacity="0.7"/>
<polygon points="676.6666666666666,166 669.6666666666666,160 670.6666666666666,170" fill="#9aa4b2"/>
<polygon points="552.6666666666666,166 558.6666666666666,160 559.6666666666666,170" fill="#9aa4b2"/>
<text x="614.6666666666666" y="102" font-family="'Segoe UI',Helvetica,Arial,sans-serif" font-size="11.5" fill="#9aa4b2" text-anchor="middle" font-weight="400">gira</text>
<circle cx="614.6666666666666" cy="172" r="52" fill="#161b22" stroke="#30363d" stroke-width="1.5"/>
<circle cx="614.6666666666666" cy="172" r="46" fill="#222a35" stroke="#E83AA6" stroke-width="2.5"/>
<circle cx="614.6666666666666" cy="172" r="34" fill="#2c3543"/>
<line x1="614.6666666666666" y1="132" x2="614.6666666666666" y2="144" stroke="#E83AA6" stroke-width="3" stroke-linecap="round"/>
<circle cx="614.6666666666666" cy="172" r="10" fill="#E83AA6" opacity="0.25"/>
<circle cx="614.6666666666666" cy="172" r="5" fill="#E83AA6"/>
<text x="614.6666666666666" y="176" font-family="'Segoe UI',Helvetica,Arial,sans-serif" font-size="10" fill="#e6edf3" text-anchor="start" font-weight="400"></text>
<text x="614.6666666666666" y="244" font-family="'Segoe UI',Helvetica,Arial,sans-serif" font-size="13.5" fill="#e6edf3" text-anchor="middle" font-weight="700">DESTRA</text>
<text x="614.6666666666666" y="262" font-family="'Segoe UI',Helvetica,Arial,sans-serif" font-size="11.5" fill="#9aa4b2" text-anchor="middle" font-weight="400">cursore ←→</text>
<rect x="515.3333333333333" y="278" width="198.66666666666666" height="21" rx="6" ry="6" fill="#1b2230" stroke="#30363d" stroke-width="1"/>
<text x="614.6666666666666" y="293" font-family="'Segoe UI',Helvetica,Arial,sans-serif" font-size="11" fill="#e6edf3" text-anchor="middle" font-weight="400">click → mute voce</text>
<rect x="515.3333333333333" y="304" width="198.66666666666666" height="21" rx="6" ry="6" fill="#1b2230" stroke="#30363d" stroke-width="1"/>
<text x="614.6666666666666" y="319" font-family="'Segoe UI',Helvetica,Arial,sans-serif" font-size="11" fill="#e6edf3" text-anchor="middle" font-weight="400">hold → mute tutto</text>
<rect x="515.3333333333333" y="330" width="198.66666666666666" height="21" rx="6" ry="6" fill="#1b2230" stroke="#30363d" stroke-width="1"/>
<text x="614.6666666666666" y="345" font-family="'Segoe UI',Helvetica,Arial,sans-serif" font-size="11" fill="#e6edf3" text-anchor="middle" font-weight="400">2× click → velocity</text>
</svg>
