<svg xmlns="http://www.w3.org/2000/svg" viewBox="0 0 960 520" width="960" height="520" role="img">
<rect x="0" y="0" width="960" height="999" rx="0" ry="0" fill="#0d1117"/>
<text x="28" y="40" font-family="'Segoe UI',Helvetica,Arial,sans-serif" font-size="22" fill="#e6edf3" text-anchor="start" font-weight="700">I controlli di ichosynth: 4 manopole + 3 pulsanti</text>
<text x="28" y="64" font-family="'Segoe UI',Helvetica,Arial,sans-serif" font-size="13.5" fill="#9aa4b2" text-anchor="start" font-weight="400">Ogni manopola (encoder) si gira e si preme. Sotto, i 3 pulsanti PLAY / MENU / REC.</text>
<line x1="28" y1="78" x2="932" y2="78" stroke="#30363d" stroke-width="1" stroke-linecap="round"/>

<!-- E1 -->
<path d="M 73 176 A 62 62 0 0 1 197 176" fill="none" stroke="#9aa4b2" stroke-width="1.5" opacity="0.7"/>
<polygon points="197,176 190,170 191,180" fill="#9aa4b2"/>
<polygon points="73,176 79,170 80,180" fill="#9aa4b2"/>
<text x="135" y="112" font-family="'Segoe UI',Helvetica,Arial,sans-serif" font-size="11.5" fill="#9aa4b2" text-anchor="middle" font-weight="400">gira</text>
<circle cx="135" cy="182" r="52" fill="#161b22" stroke="#30363d" stroke-width="1.5"/>
<circle cx="135" cy="182" r="46" fill="#222a35" stroke="#3A6BE8" stroke-width="2.5"/>
<circle cx="135" cy="182" r="34" fill="#2c3543"/>
<line x1="135" y1="142" x2="135" y2="154" stroke="#3A6BE8" stroke-width="3" stroke-linecap="round"/>
<circle cx="135" cy="182" r="10" fill="#3A6BE8" opacity="0.25"/>
<circle cx="135" cy="182" r="5" fill="#3A6BE8"/>
<text x="135" y="254" font-family="'Segoe UI',Helvetica,Arial,sans-serif" font-size="14" fill="#e6edf3" text-anchor="middle" font-weight="700">E1 · SINISTRA</text>
<text x="135" y="272" font-family="'Segoe UI',Helvetica,Arial,sans-serif" font-size="11.5" fill="#9aa4b2" text-anchor="middle" font-weight="400">canale / Y · nota</text>
<rect x="40" y="288" width="190" height="21" rx="6" ry="6" fill="#1b2230" stroke="#30363d" stroke-width="1"/>
<text x="135" y="303" font-family="'Segoe UI',Helvetica,Arial,sans-serif" font-size="11" fill="#e6edf3" text-anchor="middle" font-weight="400">gira → cursore / valore</text>
<rect x="40" y="314" width="190" height="21" rx="6" ry="6" fill="#1b2230" stroke="#30363d" stroke-width="1"/>
<text x="135" y="329" font-family="'Segoe UI',Helvetica,Arial,sans-serif" font-size="11" fill="#e6edf3" text-anchor="middle" font-weight="400">premi → mute · note shift</text>

<!-- E2 -->
<path d="M 283 176 A 62 62 0 0 1 407 176" fill="none" stroke="#9aa4b2" stroke-width="1.5" opacity="0.7"/>
<polygon points="407,176 400,170 401,180" fill="#9aa4b2"/>
<polygon points="283,176 289,170 290,180" fill="#9aa4b2"/>
<text x="345" y="112" font-family="'Segoe UI',Helvetica,Arial,sans-serif" font-size="11.5" fill="#9aa4b2" text-anchor="middle" font-weight="400">gira</text>
<circle cx="345" cy="182" r="52" fill="#161b22" stroke="#30363d" stroke-width="1.5"/>
<circle cx="345" cy="182" r="46" fill="#222a35" stroke="#36C24A" stroke-width="2.5"/>
<circle cx="345" cy="182" r="34" fill="#2c3543"/>
<line x1="345" y1="142" x2="345" y2="154" stroke="#36C24A" stroke-width="3" stroke-linecap="round"/>
<circle cx="345" cy="182" r="10" fill="#36C24A" opacity="0.25"/>
<circle cx="345" cy="182" r="5" fill="#36C24A"/>
<text x="345" y="254" font-family="'Segoe UI',Helvetica,Arial,sans-serif" font-size="14" fill="#e6edf3" text-anchor="middle" font-weight="700">E2 · CENTRO-SX</text>
<text x="345" y="272" font-family="'Segoe UI',Helvetica,Arial,sans-serif" font-size="11.5" fill="#9aa4b2" text-anchor="middle" font-weight="400">pagina · nota · valore</text>
<rect x="250" y="288" width="190" height="21" rx="6" ry="6" fill="#1b2230" stroke="#30363d" stroke-width="1"/>
<text x="345" y="303" font-family="'Segoe UI',Helvetica,Arial,sans-serif" font-size="11" fill="#e6edf3" text-anchor="middle" font-weight="400">gira → pagina / parametro</text>
<rect x="250" y="314" width="190" height="21" rx="6" ry="6" fill="#1b2230" stroke="#30363d" stroke-width="1"/>
<text x="345" y="329" font-family="'Segoe UI',Helvetica,Arial,sans-serif" font-size="11" fill="#e6edf3" text-anchor="middle" font-weight="400">premi → conferma</text>

<!-- E3 -->
<path d="M 493 176 A 62 62 0 0 1 617 176" fill="none" stroke="#9aa4b2" stroke-width="1.5" opacity="0.7"/>
<polygon points="617,176 610,170 611,180" fill="#9aa4b2"/>
<polygon points="493,176 499,170 500,180" fill="#9aa4b2"/>
<text x="555" y="112" font-family="'Segoe UI',Helvetica,Arial,sans-serif" font-size="11.5" fill="#9aa4b2" text-anchor="middle" font-weight="400">gira</text>
<circle cx="555" cy="182" r="52" fill="#161b22" stroke="#30363d" stroke-width="1.5"/>
<circle cx="555" cy="182" r="46" fill="#222a35" stroke="#FF8A1A" stroke-width="2.5"/>
<circle cx="555" cy="182" r="34" fill="#2c3543"/>
<line x1="555" y1="142" x2="555" y2="154" stroke="#FF8A1A" stroke-width="3" stroke-linecap="round"/>
<circle cx="555" cy="182" r="10" fill="#FF8A1A" opacity="0.25"/>
<circle cx="555" cy="182" r="5" fill="#FF8A1A"/>
<text x="555" y="254" font-family="'Segoe UI',Helvetica,Arial,sans-serif" font-size="14" fill="#e6edf3" text-anchor="middle" font-weight="700">E3 · CENTRO-DX</text>
<text x="555" y="272" font-family="'Segoe UI',Helvetica,Arial,sans-serif" font-size="11.5" fill="#9aa4b2" text-anchor="middle" font-weight="400">volume canale · valore</text>
<rect x="460" y="288" width="190" height="21" rx="6" ry="6" fill="#1b2230" stroke="#30363d" stroke-width="1"/>
<text x="555" y="303" font-family="'Segoe UI',Helvetica,Arial,sans-serif" font-size="11" fill="#e6edf3" text-anchor="middle" font-weight="400">gira → parametro</text>
<rect x="460" y="314" width="190" height="21" rx="6" ry="6" fill="#1b2230" stroke="#30363d" stroke-width="1"/>
<text x="555" y="329" font-family="'Segoe UI',Helvetica,Arial,sans-serif" font-size="11" fill="#e6edf3" text-anchor="middle" font-weight="400">premi → Play / Pausa</text>

<!-- E4 -->
<path d="M 703 176 A 62 62 0 0 1 827 176" fill="none" stroke="#9aa4b2" stroke-width="1.5" opacity="0.7"/>
<polygon points="827,176 820,170 821,180" fill="#9aa4b2"/>
<polygon points="703,176 709,170 710,180" fill="#9aa4b2"/>
<text x="765" y="112" font-family="'Segoe UI',Helvetica,Arial,sans-serif" font-size="11.5" fill="#9aa4b2" text-anchor="middle" font-weight="400">gira</text>
<circle cx="765" cy="182" r="52" fill="#161b22" stroke="#30363d" stroke-width="1.5"/>
<circle cx="765" cy="182" r="46" fill="#222a35" stroke="#E83AA6" stroke-width="2.5"/>
<circle cx="765" cy="182" r="34" fill="#2c3543"/>
<line x1="765" y1="142" x2="765" y2="154" stroke="#E83AA6" stroke-width="3" stroke-linecap="round"/>
<circle cx="765" cy="182" r="10" fill="#E83AA6" opacity="0.25"/>
<circle cx="765" cy="182" r="5" fill="#E83AA6"/>
<text x="765" y="254" font-family="'Segoe UI',Helvetica,Arial,sans-serif" font-size="14" fill="#e6edf3" text-anchor="middle" font-weight="700">E4 · DESTRA</text>
<text x="765" y="272" font-family="'Segoe UI',Helvetica,Arial,sans-serif" font-size="11.5" fill="#9aa4b2" text-anchor="middle" font-weight="400">X / colonna · filtro</text>
<rect x="670" y="288" width="190" height="21" rx="6" ry="6" fill="#1b2230" stroke="#30363d" stroke-width="1"/>
<text x="765" y="303" font-family="'Segoe UI',Helvetica,Arial,sans-serif" font-size="11" fill="#e6edf3" text-anchor="middle" font-weight="400">gira → cursore ←→ · cutoff</text>
<rect x="670" y="314" width="190" height="21" rx="6" ry="6" fill="#1b2230" stroke="#30363d" stroke-width="1"/>
<text x="765" y="329" font-family="'Segoe UI',Helvetica,Arial,sans-serif" font-size="11" fill="#e6edf3" text-anchor="middle" font-weight="400">premi → conferma / sotto-menu</text>

<!-- Buttons row -->
<rect x="135" y="372" width="180" height="58" rx="10" ry="10" fill="#161b22" stroke="#36C24A" stroke-width="2"/>
<text x="225" y="398" font-family="'Segoe UI',Helvetica,Arial,sans-serif" font-size="15" fill="#e6edf3" text-anchor="middle" font-weight="700">B1 · PLAY</text>
<text x="225" y="417" font-family="'Segoe UI',Helvetica,Arial,sans-serif" font-size="11" fill="#9aa4b2" text-anchor="middle" font-weight="400">play / pausa · esci a DRAW</text>

<rect x="390" y="372" width="180" height="58" rx="10" ry="10" fill="#161b22" stroke="#FFD23A" stroke-width="2"/>
<text x="480" y="398" font-family="'Segoe UI',Helvetica,Arial,sans-serif" font-size="15" fill="#e6edf3" text-anchor="middle" font-weight="700">B2 · MENU</text>
<text x="480" y="417" font-family="'Segoe UI',Helvetica,Arial,sans-serif" font-size="11" fill="#9aa4b2" text-anchor="middle" font-weight="400">entra/esci menu · tieni = FX</text>

<rect x="645" y="372" width="180" height="58" rx="10" ry="10" fill="#161b22" stroke="#E83A3A" stroke-width="2"/>
<text x="735" y="398" font-family="'Segoe UI',Helvetica,Arial,sans-serif" font-size="15" fill="#e6edf3" text-anchor="middle" font-weight="700">B3 · REC</text>
<text x="735" y="417" font-family="'Segoe UI',Helvetica,Arial,sans-serif" font-size="11" fill="#9aa4b2" text-anchor="middle" font-weight="400">registra · tieni = count-in</text>

<!-- OLED note -->
<rect x="135" y="452" width="690" height="44" rx="10" ry="10" fill="#10212e" stroke="#1f6feb" stroke-width="1.5"/>
<text x="480" y="471" font-family="'Segoe UI',Helvetica,Arial,sans-serif" font-size="12.5" fill="#e6edf3" text-anchor="middle" font-weight="700">L'OLED mostra lo stato in tempo reale</text>
<text x="480" y="488" font-family="'Segoe UI',Helvetica,Arial,sans-serif" font-size="11" fill="#9aa4b2" text-anchor="middle" font-weight="400">canale · modo · trasporto (PLAY/REC/STOP) · BPM · volume · pagina (al posto degli anelli RGB di TŒRN)</text>
</svg>
