<svg xmlns="http://www.w3.org/2000/svg" viewBox="0 0 958 170" width="958" height="170" role="img">
<rect x="0" y="0" width="958" height="999" rx="0" ry="0" fill="#0d1117"/>
<text x="28" y="40" font-family="'Segoe UI',Helvetica,Arial,sans-serif" font-size="22" fill="#e6edf3" text-anchor="start" font-weight="700">Caricare il firmware: la sequenza</text>
<text x="28" y="64" font-family="'Segoe UI',Helvetica,Arial,sans-serif" font-size="13.5" fill="#9aa4b2" text-anchor="start" font-weight="400">Segui l'ordine; il passo 3 è obbligatorio.</text>
<line x1="28" y1="78" x2="930" y2="78" stroke="#30363d" stroke-width="1" stroke-linecap="round"/>
<rect x="28" y="92" width="132" height="56" rx="9" ry="9" fill="#161b22" stroke="#1f6feb" stroke-width="2"/>
<text x="94.0" y="118.0" font-family="'Segoe UI',Helvetica,Arial,sans-serif" font-size="12.5" fill="#e6edf3" text-anchor="middle" font-weight="700">Arduino IDE</text>
<text x="94.0" y="135.0" font-family="'Segoe UI',Helvetica,Arial,sans-serif" font-size="10.5" fill="#9aa4b2" text-anchor="middle" font-weight="400">+ Teensyduino</text>
<line x1="160" y1="120.0" x2="173.0" y2="120.0" stroke="#8a8f98" stroke-width="2" stroke-linecap="round"/>
<polygon points="182.0,120.0 173.3,125.0 173.3,115.0" fill="#8a8f98"/>
<rect x="182" y="92" width="132" height="56" rx="9" ry="9" fill="#161b22" stroke="#2AD4B8" stroke-width="2"/>
<text x="248.0" y="118.0" font-family="'Segoe UI',Helvetica,Arial,sans-serif" font-size="12.5" fill="#e6edf3" text-anchor="middle" font-weight="700">Librerie</text>
<text x="248.0" y="135.0" font-family="'Segoe UI',Helvetica,Arial,sans-serif" font-size="10.5" fill="#9aa4b2" text-anchor="middle" font-weight="400">FastLED, Audio…</text>
<line x1="314" y1="120.0" x2="327.0" y2="120.0" stroke="#8a8f98" stroke-width="2" stroke-linecap="round"/>
<polygon points="336.0,120.0 327.3,125.0 327.3,115.0" fill="#8a8f98"/>
<rect x="336" y="92" width="132" height="56" rx="9" ry="9" fill="#161b22" stroke="#d29922" stroke-width="2"/>
<text x="402.0" y="118.0" font-family="'Segoe UI',Helvetica,Arial,sans-serif" font-size="12.5" fill="#e6edf3" text-anchor="middle" font-weight="700">ResamplingReader.h</text>
<text x="402.0" y="135.0" font-family="'Segoe UI',Helvetica,Arial,sans-serif" font-size="10.5" fill="#9aa4b2" text-anchor="middle" font-weight="400">⚠ sostituisci</text>
<line x1="468" y1="120.0" x2="481.0" y2="120.0" stroke="#8a8f98" stroke-width="2" stroke-linecap="round"/>
<polygon points="490.0,120.0 481.3,125.0 481.3,115.0" fill="#8a8f98"/>
<rect x="490" y="92" width="132" height="56" rx="9" ry="9" fill="#161b22" stroke="#9A57E8" stroke-width="2"/>
<text x="556.0" y="118.0" font-family="'Segoe UI',Helvetica,Arial,sans-serif" font-size="12.5" fill="#e6edf3" text-anchor="middle" font-weight="700">USB Type</text>
<text x="556.0" y="135.0" font-family="'Segoe UI',Helvetica,Arial,sans-serif" font-size="10.5" fill="#9aa4b2" text-anchor="middle" font-weight="400">Serial + MIDI</text>
<line x1="622" y1="120.0" x2="635.0" y2="120.0" stroke="#8a8f98" stroke-width="2" stroke-linecap="round"/>
<polygon points="644.0,120.0 635.3,125.0 635.3,115.0" fill="#8a8f98"/>
<rect x="644" y="92" width="132" height="56" rx="9" ry="9" fill="#161b22" stroke="#2ea44f" stroke-width="2"/>
<text x="710.0" y="118.0" font-family="'Segoe UI',Helvetica,Arial,sans-serif" font-size="12.5" fill="#e6edf3" text-anchor="middle" font-weight="700">config.h</text>
<text x="710.0" y="135.0" font-family="'Segoe UI',Helvetica,Arial,sans-serif" font-size="10.5" fill="#9aa4b2" text-anchor="middle" font-weight="400">OLED / MIDI (opz.)</text>
<line x1="776" y1="120.0" x2="789.0" y2="120.0" stroke="#8a8f98" stroke-width="2" stroke-linecap="round"/>
<polygon points="798.0,120.0 789.3,125.0 789.3,115.0" fill="#8a8f98"/>
<rect x="798" y="92" width="132" height="56" rx="9" ry="9" fill="#161b22" stroke="#E83A3A" stroke-width="2"/>
<text x="864.0" y="118.0" font-family="'Segoe UI',Helvetica,Arial,sans-serif" font-size="12.5" fill="#e6edf3" text-anchor="middle" font-weight="700">Upload ▶</text>
<text x="864.0" y="135.0" font-family="'Segoe UI',Helvetica,Arial,sans-serif" font-size="10.5" fill="#9aa4b2" text-anchor="middle" font-weight="400">carica sul Teensy</text>
</svg>
