<svg xmlns="http://www.w3.org/2000/svg" viewBox="0 0 734 170" width="734" height="170" role="img">
<rect x="0" y="0" width="734" height="999" rx="0" ry="0" fill="#0d1117"/>
<text x="28" y="40" font-family="'Segoe UI',Helvetica,Arial,sans-serif" font-size="22" fill="#e6edf3" text-anchor="start" font-weight="700">Caricare il firmware: la sequenza</text>
<text x="28" y="64" font-family="'Segoe UI',Helvetica,Arial,sans-serif" font-size="13.5" fill="#9aa4b2" text-anchor="start" font-weight="400">Un comando compila il vero TŒRN e produce l'.hex da flashare.</text>
<line x1="28" y1="78" x2="706" y2="78" stroke="#30363d" stroke-width="1" stroke-linecap="round"/>
<rect x="28" y="92" width="150" height="56" rx="9" ry="9" fill="#161b22" stroke="#1f6feb" stroke-width="2"/>
<text x="103.0" y="118.0" font-family="'Segoe UI',Helvetica,Arial,sans-serif" font-size="12.5" fill="#e6edf3" text-anchor="middle" font-weight="700">arduino-cli</text>
<text x="103.0" y="135.0" font-family="'Segoe UI',Helvetica,Arial,sans-serif" font-size="10.5" fill="#9aa4b2" text-anchor="middle" font-weight="400">+ core teensy:avr</text>
<line x1="178" y1="120.0" x2="195.0" y2="120.0" stroke="#8a8f98" stroke-width="2" stroke-linecap="round"/>
<polygon points="204.0,120.0 195.3,125.0 195.3,115.0" fill="#8a8f98"/>
<rect x="204" y="92" width="150" height="56" rx="9" ry="9" fill="#161b22" stroke="#2AD4B8" stroke-width="2"/>
<text x="279.0" y="118.0" font-family="'Segoe UI',Helvetica,Arial,sans-serif" font-size="12.5" fill="#e6edf3" text-anchor="middle" font-weight="700">build_toern.py</text>
<text x="279.0" y="135.0" font-family="'Segoe UI',Helvetica,Arial,sans-serif" font-size="10.5" fill="#9aa4b2" text-anchor="middle" font-weight="400">compila (-O1)</text>
<line x1="354" y1="120.0" x2="371.0" y2="120.0" stroke="#8a8f98" stroke-width="2" stroke-linecap="round"/>
<polygon points="380.0,120.0 371.3,125.0 371.3,115.0" fill="#8a8f98"/>
<rect x="380" y="92" width="150" height="56" rx="9" ry="9" fill="#161b22" stroke="#2ea44f" stroke-width="2"/>
<text x="455.0" y="118.0" font-family="'Segoe UI',Helvetica,Arial,sans-serif" font-size="12.5" fill="#e6edf3" text-anchor="middle" font-weight="700">toern.hex</text>
<text x="455.0" y="135.0" font-family="'Segoe UI',Helvetica,Arial,sans-serif" font-size="10.5" fill="#9aa4b2" text-anchor="middle" font-weight="400">in teensy/firmware/</text>
<line x1="530" y1="120.0" x2="547.0" y2="120.0" stroke="#8a8f98" stroke-width="2" stroke-linecap="round"/>
<polygon points="556.0,120.0 547.3,125.0 547.3,115.0" fill="#8a8f98"/>
<rect x="556" y="92" width="150" height="56" rx="9" ry="9" fill="#161b22" stroke="#E83A3A" stroke-width="2"/>
<text x="631.0" y="118.0" font-family="'Segoe UI',Helvetica,Arial,sans-serif" font-size="12.5" fill="#e6edf3" text-anchor="middle" font-weight="700">Flash ▶</text>
<text x="631.0" y="135.0" font-family="'Segoe UI',Helvetica,Arial,sans-serif" font-size="10.5" fill="#9aa4b2" text-anchor="middle" font-weight="400">GUI (_FLASHER) o CLI</text>
</svg>
