<svg xmlns="http://www.w3.org/2000/svg" viewBox="0 0 600 548" width="600" height="548" role="img">
<rect x="0" y="0" width="600" height="999" rx="0" ry="0" fill="#0d1117"/>
<text x="28" y="40" font-family="'Segoe UI',Helvetica,Arial,sans-serif" font-size="22" fill="#e6edf3" text-anchor="start" font-weight="700">La griglia 16×16 = il tuo foglio musicale</text>
<text x="28" y="64" font-family="'Segoe UI',Helvetica,Arial,sans-serif" font-size="13.5" fill="#9aa4b2" text-anchor="start" font-weight="400">Righe = voci (colori) · Colonne = step · la testina suona colonna per colonna</text>
<line x1="28" y1="78" x2="572" y2="78" stroke="#30363d" stroke-width="1" stroke-linecap="round"/>
<rect x="140" y="118" width="402" height="402" rx="10" ry="10" fill="#161b22" stroke="#30363d" stroke-width="1"/>
<rect x="293" y="122" width="24" height="392" rx="5" ry="5" fill="#ffffff" opacity="0.13"/>
<polygon points="298.0,114 312.0,114 305.0,123" fill="#ffffff"/>
<rect x="149" y="127" width="24" height="24" rx="5" ry="5" fill="#E83A3A" opacity="0.25"/>
<rect x="150" y="128" width="22" height="22" rx="4" ry="4" fill="#E83A3A"/>
<rect x="174" y="128" width="22" height="22" rx="4" ry="4" fill="#1b2230" stroke="#30363d" stroke-width="1"/>
<rect x="198" y="128" width="22" height="22" rx="4" ry="4" fill="#1b2230" stroke="#30363d" stroke-width="1"/>
<rect x="222" y="128" width="22" height="22" rx="4" ry="4" fill="#1b2230" stroke="#30363d" stroke-width="1"/>
<rect x="245" y="127" width="24" height="24" rx="5" ry="5" fill="#E83A3A" opacity="0.25"/>
<rect x="246" y="128" width="22" height="22" rx="4" ry="4" fill="#E83A3A"/>
<rect x="270" y="128" width="22" height="22" rx="4" ry="4" fill="#1b2230" stroke="#30363d" stroke-width="1"/>
<rect x="294" y="128" width="22" height="22" rx="4" ry="4" fill="#1b2230" stroke="#30363d" stroke-width="1"/>
<rect x="318" y="128" width="22" height="22" rx="4" ry="4" fill="#1b2230" stroke="#30363d" stroke-width="1"/>
<rect x="341" y="127" width="24" height="24" rx="5" ry="5" fill="#E83A3A" opacity="0.25"/>
<rect x="342" y="128" width="22" height="22" rx="4" ry="4" fill="#E83A3A"/>
<rect x="366" y="128" width="22" height="22" rx="4" ry="4" fill="#1b2230" stroke="#30363d" stroke-width="1"/>
<rect x="390" y="128" width="22" height="22" rx="4" ry="4" fill="#1b2230" stroke="#30363d" stroke-width="1"/>
<rect x="414" y="128" width="22" height="22" rx="4" ry="4" fill="#1b2230" stroke="#30363d" stroke-width="1"/>
<rect x="437" y="127" width="24" height="24" rx="5" ry="5" fill="#E83A3A" opacity="0.25"/>
<rect x="438" y="128" width="22" height="22" rx="4" ry="4" fill="#E83A3A"/>
<rect x="462" y="128" width="22" height="22" rx="4" ry="4" fill="#1b2230" stroke="#30363d" stroke-width="1"/>
<rect x="486" y="128" width="22" height="22" rx="4" ry="4" fill="#1b2230" stroke="#30363d" stroke-width="1"/>
<rect x="510" y="128" width="22" height="22" rx="4" ry="4" fill="#1b2230" stroke="#30363d" stroke-width="1"/>
<rect x="150" y="152" width="22" height="22" rx="4" ry="4" fill="#1b2230" stroke="#30363d" stroke-width="1"/>
<rect x="174" y="152" width="22" height="22" rx="4" ry="4" fill="#1b2230" stroke="#30363d" stroke-width="1"/>
<rect x="198" y="152" width="22" height="22" rx="4" ry="4" fill="#1b2230" stroke="#30363d" stroke-width="1"/>
<rect x="222" y="152" width="22" height="22" rx="4" ry="4" fill="#1b2230" stroke="#30363d" stroke-width="1"/>
<rect x="245" y="151" width="24" height="24" rx="5" ry="5" fill="#3A6BE8" opacity="0.25"/>
<rect x="246" y="152" width="22" height="22" rx="4" ry="4" fill="#3A6BE8"/>
<rect x="270" y="152" width="22" height="22" rx="4" ry="4" fill="#1b2230" stroke="#30363d" stroke-width="1"/>
<rect x="294" y="152" width="22" height="22" rx="4" ry="4" fill="#1b2230" stroke="#30363d" stroke-width="1"/>
<rect x="318" y="152" width="22" height="22" rx="4" ry="4" fill="#1b2230" stroke="#30363d" stroke-width="1"/>
<rect x="342" y="152" width="22" height="22" rx="4" ry="4" fill="#1b2230" stroke="#30363d" stroke-width="1"/>
<rect x="366" y="152" width="22" height="22" rx="4" ry="4" fill="#1b2230" stroke="#30363d" stroke-width="1"/>
<rect x="390" y="152" width="22" height="22" rx="4" ry="4" fill="#1b2230" stroke="#30363d" stroke-width="1"/>
<rect x="414" y="152" width="22" height="22" rx="4" ry="4" fill="#1b2230" stroke="#30363d" stroke-width="1"/>
<rect x="437" y="151" width="24" height="24" rx="5" ry="5" fill="#3A6BE8" opacity="0.25"/>
<rect x="438" y="152" width="22" height="22" rx="4" ry="4" fill="#3A6BE8"/>
<rect x="462" y="152" width="22" height="22" rx="4" ry="4" fill="#1b2230" stroke="#30363d" stroke-width="1"/>
<rect x="486" y="152" width="22" height="22" rx="4" ry="4" fill="#1b2230" stroke="#30363d" stroke-width="1"/>
<rect x="510" y="152" width="22" height="22" rx="4" ry="4" fill="#1b2230" stroke="#30363d" stroke-width="1"/>
<rect x="149" y="175" width="24" height="24" rx="5" ry="5" fill="#E8D23A" opacity="0.25"/>
<rect x="150" y="176" width="22" height="22" rx="4" ry="4" fill="#E8D23A"/>
<rect x="174" y="176" width="22" height="22" rx="4" ry="4" fill="#1b2230" stroke="#30363d" stroke-width="1"/>
<rect x="197" y="175" width="24" height="24" rx="5" ry="5" fill="#E8D23A" opacity="0.25"/>
<rect x="198" y="176" width="22" height="22" rx="4" ry="4" fill="#E8D23A"/>
<rect x="222" y="176" width="22" height="22" rx="4" ry="4" fill="#1b2230" stroke="#30363d" stroke-width="1"/>
<rect x="245" y="175" width="24" height="24" rx="5" ry="5" fill="#E8D23A" opacity="0.25"/>
<rect x="246" y="176" width="22" height="22" rx="4" ry="4" fill="#E8D23A"/>
<rect x="270" y="176" width="22" height="22" rx="4" ry="4" fill="#1b2230" stroke="#30363d" stroke-width="1"/>
<rect x="293" y="175" width="24" height="24" rx="5" ry="5" fill="#E8D23A" opacity="0.25"/>
<rect x="294" y="176" width="22" height="22" rx="4" ry="4" fill="#E8D23A"/>
<rect x="318" y="176" width="22" height="22" rx="4" ry="4" fill="#1b2230" stroke="#30363d" stroke-width="1"/>
<rect x="341" y="175" width="24" height="24" rx="5" ry="5" fill="#E8D23A" opacity="0.25"/>
<rect x="342" y="176" width="22" height="22" rx="4" ry="4" fill="#E8D23A"/>
<rect x="366" y="176" width="22" height="22" rx="4" ry="4" fill="#1b2230" stroke="#30363d" stroke-width="1"/>
<rect x="389" y="175" width="24" height="24" rx="5" ry="5" fill="#E8D23A" opacity="0.25"/>
<rect x="390" y="176" width="22" height="22" rx="4" ry="4" fill="#E8D23A"/>
<rect x="414" y="176" width="22" height="22" rx="4" ry="4" fill="#1b2230" stroke="#30363d" stroke-width="1"/>
<rect x="437" y="175" width="24" height="24" rx="5" ry="5" fill="#E8D23A" opacity="0.25"/>
<rect x="438" y="176" width="22" height="22" rx="4" ry="4" fill="#E8D23A"/>
<rect x="462" y="176" width="22" height="22" rx="4" ry="4" fill="#1b2230" stroke="#30363d" stroke-width="1"/>
<rect x="485" y="175" width="24" height="24" rx="5" ry="5" fill="#E8D23A" opacity="0.25"/>
<rect x="486" y="176" width="22" height="22" rx="4" ry="4" fill="#E8D23A"/>
<rect x="510" y="176" width="22" height="22" rx="4" ry="4" fill="#1b2230" stroke="#30363d" stroke-width="1"/>
<rect x="150" y="200" width="22" height="22" rx="4" ry="4" fill="#1b2230" stroke="#30363d" stroke-width="1"/>
<rect x="174" y="200" width="22" height="22" rx="4" ry="4" fill="#1b2230" stroke="#30363d" stroke-width="1"/>
<rect x="198" y="200" width="22" height="22" rx="4" ry="4" fill="#1b2230" stroke="#30363d" stroke-width="1"/>
<rect x="222" y="200" width="22" height="22" rx="4" ry="4" fill="#1b2230" stroke="#30363d" stroke-width="1"/>
<rect x="246" y="200" width="22" height="22" rx="4" ry="4" fill="#1b2230" stroke="#30363d" stroke-width="1"/>
<rect x="270" y="200" width="22" height="22" rx="4" ry="4" fill="#1b2230" stroke="#30363d" stroke-width="1"/>
<rect x="294" y="200" width="22" height="22" rx="4" ry="4" fill="#1b2230" stroke="#30363d" stroke-width="1"/>
<rect x="317" y="199" width="24" height="24" rx="5" ry="5" fill="#36C24A" opacity="0.25"/>
<rect x="318" y="200" width="22" height="22" rx="4" ry="4" fill="#36C24A"/>
<rect x="342" y="200" width="22" height="22" rx="4" ry="4" fill="#1b2230" stroke="#30363d" stroke-width="1"/>
<rect x="366" y="200" width="22" height="22" rx="4" ry="4" fill="#1b2230" stroke="#30363d" stroke-width="1"/>
<rect x="390" y="200" width="22" height="22" rx="4" ry="4" fill="#1b2230" stroke="#30363d" stroke-width="1"/>
<rect x="414" y="200" width="22" height="22" rx="4" ry="4" fill="#1b2230" stroke="#30363d" stroke-width="1"/>
<rect x="438" y="200" width="22" height="22" rx="4" ry="4" fill="#1b2230" stroke="#30363d" stroke-width="1"/>
<rect x="462" y="200" width="22" height="22" rx="4" ry="4" fill="#1b2230" stroke="#30363d" stroke-width="1"/>
<rect x="486" y="200" width="22" height="22" rx="4" ry="4" fill="#1b2230" stroke="#30363d" stroke-width="1"/>
<rect x="509" y="199" width="24" height="24" rx="5" ry="5" fill="#36C24A" opacity="0.25"/>
<rect x="510" y="200" width="22" height="22" rx="4" ry="4" fill="#36C24A"/>
<rect x="150" y="224" width="22" height="22" rx="4" ry="4" fill="#1b2230" stroke="#30363d" stroke-width="1"/>
<rect x="174" y="224" width="22" height="22" rx="4" ry="4" fill="#1b2230" stroke="#30363d" stroke-width="1"/>
<rect x="197" y="223" width="24" height="24" rx="5" ry="5" fill="#E83AA6" opacity="0.25"/>
<rect x="198" y="224" width="22" height="22" rx="4" ry="4" fill="#E83AA6"/>
<rect x="222" y="224" width="22" height="22" rx="4" ry="4" fill="#1b2230" stroke="#30363d" stroke-width="1"/>
<rect x="246" y="224" width="22" height="22" rx="4" ry="4" fill="#1b2230" stroke="#30363d" stroke-width="1"/>
<rect x="270" y="224" width="22" height="22" rx="4" ry="4" fill="#1b2230" stroke="#30363d" stroke-width="1"/>
<rect x="294" y="224" width="22" height="22" rx="4" ry="4" fill="#1b2230" stroke="#30363d" stroke-width="1"/>
<rect x="318" y="224" width="22" height="22" rx="4" ry="4" fill="#1b2230" stroke="#30363d" stroke-width="1"/>
<rect x="342" y="224" width="22" height="22" rx="4" ry="4" fill="#1b2230" stroke="#30363d" stroke-width="1"/>
<rect x="366" y="224" width="22" height="22" rx="4" ry="4" fill="#1b2230" stroke="#30363d" stroke-width="1"/>
<rect x="389" y="223" width="24" height="24" rx="5" ry="5" fill="#E83AA6" opacity="0.25"/>
<rect x="390" y="224" width="22" height="22" rx="4" ry="4" fill="#E83AA6"/>
<rect x="414" y="224" width="22" height="22" rx="4" ry="4" fill="#1b2230" stroke="#30363d" stroke-width="1"/>
<rect x="438" y="224" width="22" height="22" rx="4" ry="4" fill="#1b2230" stroke="#30363d" stroke-width="1"/>
<rect x="462" y="224" width="22" height="22" rx="4" ry="4" fill="#1b2230" stroke="#30363d" stroke-width="1"/>
<rect x="486" y="224" width="22" height="22" rx="4" ry="4" fill="#1b2230" stroke="#30363d" stroke-width="1"/>
<rect x="510" y="224" width="22" height="22" rx="4" ry="4" fill="#1b2230" stroke="#30363d" stroke-width="1"/>
<rect x="149" y="247" width="24" height="24" rx="5" ry="5" fill="#A6E03A" opacity="0.25"/>
<rect x="150" y="248" width="22" height="22" rx="4" ry="4" fill="#A6E03A"/>
<rect x="174" y="248" width="22" height="22" rx="4" ry="4" fill="#1b2230" stroke="#30363d" stroke-width="1"/>
<rect x="198" y="248" width="22" height="22" rx="4" ry="4" fill="#1b2230" stroke="#30363d" stroke-width="1"/>
<rect x="222" y="248" width="22" height="22" rx="4" ry="4" fill="#1b2230" stroke="#30363d" stroke-width="1"/>
<rect x="246" y="248" width="22" height="22" rx="4" ry="4" fill="#1b2230" stroke="#30363d" stroke-width="1"/>
<rect x="270" y="248" width="22" height="22" rx="4" ry="4" fill="#1b2230" stroke="#30363d" stroke-width="1"/>
<rect x="293" y="247" width="24" height="24" rx="5" ry="5" fill="#A6E03A" opacity="0.25"/>
<rect x="294" y="248" width="22" height="22" rx="4" ry="4" fill="#A6E03A"/>
<rect x="318" y="248" width="22" height="22" rx="4" ry="4" fill="#1b2230" stroke="#30363d" stroke-width="1"/>
<rect x="342" y="248" width="22" height="22" rx="4" ry="4" fill="#1b2230" stroke="#30363d" stroke-width="1"/>
<rect x="366" y="248" width="22" height="22" rx="4" ry="4" fill="#1b2230" stroke="#30363d" stroke-width="1"/>
<rect x="390" y="248" width="22" height="22" rx="4" ry="4" fill="#1b2230" stroke="#30363d" stroke-width="1"/>
<rect x="413" y="247" width="24" height="24" rx="5" ry="5" fill="#A6E03A" opacity="0.25"/>
<rect x="414" y="248" width="22" height="22" rx="4" ry="4" fill="#A6E03A"/>
<rect x="438" y="248" width="22" height="22" rx="4" ry="4" fill="#1b2230" stroke="#30363d" stroke-width="1"/>
<rect x="462" y="248" width="22" height="22" rx="4" ry="4" fill="#1b2230" stroke="#30363d" stroke-width="1"/>
<rect x="486" y="248" width="22" height="22" rx="4" ry="4" fill="#1b2230" stroke="#30363d" stroke-width="1"/>
<rect x="510" y="248" width="22" height="22" rx="4" ry="4" fill="#1b2230" stroke="#30363d" stroke-width="1"/>
<rect x="150" y="272" width="22" height="22" rx="4" ry="4" fill="#1b2230" stroke="#30363d" stroke-width="1"/>
<rect x="174" y="272" width="22" height="22" rx="4" ry="4" fill="#1b2230" stroke="#30363d" stroke-width="1"/>
<rect x="198" y="272" width="22" height="22" rx="4" ry="4" fill="#1b2230" stroke="#30363d" stroke-width="1"/>
<rect x="221" y="271" width="24" height="24" rx="5" ry="5" fill="#FF7A1A" opacity="0.25"/>
<rect x="222" y="272" width="22" height="22" rx="4" ry="4" fill="#FF7A1A"/>
<rect x="246" y="272" width="22" height="22" rx="4" ry="4" fill="#1b2230" stroke="#30363d" stroke-width="1"/>
<rect x="270" y="272" width="22" height="22" rx="4" ry="4" fill="#1b2230" stroke="#30363d" stroke-width="1"/>
<rect x="294" y="272" width="22" height="22" rx="4" ry="4" fill="#1b2230" stroke="#30363d" stroke-width="1"/>
<rect x="318" y="272" width="22" height="22" rx="4" ry="4" fill="#1b2230" stroke="#30363d" stroke-width="1"/>
<rect x="342" y="272" width="22" height="22" rx="4" ry="4" fill="#1b2230" stroke="#30363d" stroke-width="1"/>
<rect x="365" y="271" width="24" height="24" rx="5" ry="5" fill="#FF7A1A" opacity="0.25"/>
<rect x="366" y="272" width="22" height="22" rx="4" ry="4" fill="#FF7A1A"/>
<rect x="390" y="272" width="22" height="22" rx="4" ry="4" fill="#1b2230" stroke="#30363d" stroke-width="1"/>
<rect x="414" y="272" width="22" height="22" rx="4" ry="4" fill="#1b2230" stroke="#30363d" stroke-width="1"/>
<rect x="438" y="272" width="22" height="22" rx="4" ry="4" fill="#1b2230" stroke="#30363d" stroke-width="1"/>
<rect x="461" y="271" width="24" height="24" rx="5" ry="5" fill="#FF7A1A" opacity="0.25"/>
<rect x="462" y="272" width="22" height="22" rx="4" ry="4" fill="#FF7A1A"/>
<rect x="486" y="272" width="22" height="22" rx="4" ry="4" fill="#1b2230" stroke="#30363d" stroke-width="1"/>
<rect x="510" y="272" width="22" height="22" rx="4" ry="4" fill="#1b2230" stroke="#30363d" stroke-width="1"/>
<rect x="150" y="296" width="22" height="22" rx="4" ry="4" fill="#1b2230" stroke="#30363d" stroke-width="1"/>
<rect x="174" y="296" width="22" height="22" rx="4" ry="4" fill="#1b2230" stroke="#30363d" stroke-width="1"/>
<rect x="198" y="296" width="22" height="22" rx="4" ry="4" fill="#1b2230" stroke="#30363d" stroke-width="1"/>
<rect x="222" y="296" width="22" height="22" rx="4" ry="4" fill="#1b2230" stroke="#30363d" stroke-width="1"/>
<rect x="246" y="296" width="22" height="22" rx="4" ry="4" fill="#1b2230" stroke="#30363d" stroke-width="1"/>
<rect x="269" y="295" width="24" height="24" rx="5" ry="5" fill="#2AD4B8" opacity="0.25"/>
<rect x="270" y="296" width="22" height="22" rx="4" ry="4" fill="#2AD4B8"/>
<rect x="294" y="296" width="22" height="22" rx="4" ry="4" fill="#1b2230" stroke="#30363d" stroke-width="1"/>
<rect x="318" y="296" width="22" height="22" rx="4" ry="4" fill="#1b2230" stroke="#30363d" stroke-width="1"/>
<rect x="342" y="296" width="22" height="22" rx="4" ry="4" fill="#1b2230" stroke="#30363d" stroke-width="1"/>
<rect x="366" y="296" width="22" height="22" rx="4" ry="4" fill="#1b2230" stroke="#30363d" stroke-width="1"/>
<rect x="390" y="296" width="22" height="22" rx="4" ry="4" fill="#1b2230" stroke="#30363d" stroke-width="1"/>
<rect x="414" y="296" width="22" height="22" rx="4" ry="4" fill="#1b2230" stroke="#30363d" stroke-width="1"/>
<rect x="438" y="296" width="22" height="22" rx="4" ry="4" fill="#1b2230" stroke="#30363d" stroke-width="1"/>
<rect x="462" y="296" width="22" height="22" rx="4" ry="4" fill="#1b2230" stroke="#30363d" stroke-width="1"/>
<rect x="485" y="295" width="24" height="24" rx="5" ry="5" fill="#2AD4B8" opacity="0.25"/>
<rect x="486" y="296" width="22" height="22" rx="4" ry="4" fill="#2AD4B8"/>
<rect x="510" y="296" width="22" height="22" rx="4" ry="4" fill="#1b2230" stroke="#30363d" stroke-width="1"/>
<rect x="150" y="320" width="22" height="22" rx="4" ry="4" fill="#1b2230" stroke="#30363d" stroke-width="1"/>
<rect x="174" y="320" width="22" height="22" rx="4" ry="4" fill="#1b2230" stroke="#30363d" stroke-width="1"/>
<rect x="198" y="320" width="22" height="22" rx="4" ry="4" fill="#1b2230" stroke="#30363d" stroke-width="1"/>
<rect x="222" y="320" width="22" height="22" rx="4" ry="4" fill="#1b2230" stroke="#30363d" stroke-width="1"/>
<rect x="246" y="320" width="22" height="22" rx="4" ry="4" fill="#1b2230" stroke="#30363d" stroke-width="1"/>
<rect x="270" y="320" width="22" height="22" rx="4" ry="4" fill="#1b2230" stroke="#30363d" stroke-width="1"/>
<rect x="294" y="320" width="22" height="22" rx="4" ry="4" fill="#1b2230" stroke="#30363d" stroke-width="1"/>
<rect x="318" y="320" width="22" height="22" rx="4" ry="4" fill="#1b2230" stroke="#30363d" stroke-width="1"/>
<rect x="342" y="320" width="22" height="22" rx="4" ry="4" fill="#1b2230" stroke="#30363d" stroke-width="1"/>
<rect x="366" y="320" width="22" height="22" rx="4" ry="4" fill="#1b2230" stroke="#30363d" stroke-width="1"/>
<rect x="390" y="320" width="22" height="22" rx="4" ry="4" fill="#1b2230" stroke="#30363d" stroke-width="1"/>
<rect x="414" y="320" width="22" height="22" rx="4" ry="4" fill="#1b2230" stroke="#30363d" stroke-width="1"/>
<rect x="438" y="320" width="22" height="22" rx="4" ry="4" fill="#1b2230" stroke="#30363d" stroke-width="1"/>
<rect x="462" y="320" width="22" height="22" rx="4" ry="4" fill="#1b2230" stroke="#30363d" stroke-width="1"/>
<rect x="486" y="320" width="22" height="22" rx="4" ry="4" fill="#1b2230" stroke="#30363d" stroke-width="1"/>
<rect x="510" y="320" width="22" height="22" rx="4" ry="4" fill="#1b2230" stroke="#30363d" stroke-width="1"/>
<rect x="150" y="344" width="22" height="22" rx="4" ry="4" fill="#1b2230" stroke="#30363d" stroke-width="1"/>
<rect x="174" y="344" width="22" height="22" rx="4" ry="4" fill="#1b2230" stroke="#30363d" stroke-width="1"/>
<rect x="198" y="344" width="22" height="22" rx="4" ry="4" fill="#1b2230" stroke="#30363d" stroke-width="1"/>
<rect x="222" y="344" width="22" height="22" rx="4" ry="4" fill="#1b2230" stroke="#30363d" stroke-width="1"/>
<rect x="246" y="344" width="22" height="22" rx="4" ry="4" fill="#1b2230" stroke="#30363d" stroke-width="1"/>
<rect x="270" y="344" width="22" height="22" rx="4" ry="4" fill="#1b2230" stroke="#30363d" stroke-width="1"/>
<rect x="294" y="344" width="22" height="22" rx="4" ry="4" fill="#1b2230" stroke="#30363d" stroke-width="1"/>
<rect x="318" y="344" width="22" height="22" rx="4" ry="4" fill="#1b2230" stroke="#30363d" stroke-width="1"/>
<rect x="342" y="344" width="22" height="22" rx="4" ry="4" fill="#1b2230" stroke="#30363d" stroke-width="1"/>
<rect x="366" y="344" width="22" height="22" rx="4" ry="4" fill="#1b2230" stroke="#30363d" stroke-width="1"/>
<rect x="390" y="344" width="22" height="22" rx="4" ry="4" fill="#1b2230" stroke="#30363d" stroke-width="1"/>
<rect x="414" y="344" width="22" height="22" rx="4" ry="4" fill="#1b2230" stroke="#30363d" stroke-width="1"/>
<rect x="438" y="344" width="22" height="22" rx="4" ry="4" fill="#1b2230" stroke="#30363d" stroke-width="1"/>
<rect x="462" y="344" width="22" height="22" rx="4" ry="4" fill="#1b2230" stroke="#30363d" stroke-width="1"/>
<rect x="486" y="344" width="22" height="22" rx="4" ry="4" fill="#1b2230" stroke="#30363d" stroke-width="1"/>
<rect x="510" y="344" width="22" height="22" rx="4" ry="4" fill="#1b2230" stroke="#30363d" stroke-width="1"/>
<rect x="150" y="368" width="22" height="22" rx="4" ry="4" fill="#1b2230" stroke="#30363d" stroke-width="1"/>
<rect x="174" y="368" width="22" height="22" rx="4" ry="4" fill="#1b2230" stroke="#30363d" stroke-width="1"/>
<rect x="198" y="368" width="22" height="22" rx="4" ry="4" fill="#1b2230" stroke="#30363d" stroke-width="1"/>
<rect x="222" y="368" width="22" height="22" rx="4" ry="4" fill="#1b2230" stroke="#30363d" stroke-width="1"/>
<rect x="246" y="368" width="22" height="22" rx="4" ry="4" fill="#1b2230" stroke="#30363d" stroke-width="1"/>
<rect x="270" y="368" width="22" height="22" rx="4" ry="4" fill="#1b2230" stroke="#30363d" stroke-width="1"/>
<rect x="294" y="368" width="22" height="22" rx="4" ry="4" fill="#1b2230" stroke="#30363d" stroke-width="1"/>
<rect x="318" y="368" width="22" height="22" rx="4" ry="4" fill="#1b2230" stroke="#30363d" stroke-width="1"/>
<rect x="342" y="368" width="22" height="22" rx="4" ry="4" fill="#1b2230" stroke="#30363d" stroke-width="1"/>
<rect x="366" y="368" width="22" height="22" rx="4" ry="4" fill="#1b2230" stroke="#30363d" stroke-width="1"/>
<rect x="390" y="368" width="22" height="22" rx="4" ry="4" fill="#1b2230" stroke="#30363d" stroke-width="1"/>
<rect x="414" y="368" width="22" height="22" rx="4" ry="4" fill="#1b2230" stroke="#30363d" stroke-width="1"/>
<rect x="438" y="368" width="22" height="22" rx="4" ry="4" fill="#1b2230" stroke="#30363d" stroke-width="1"/>
<rect x="462" y="368" width="22" height="22" rx="4" ry="4" fill="#1b2230" stroke="#30363d" stroke-width="1"/>
<rect x="486" y="368" width="22" height="22" rx="4" ry="4" fill="#1b2230" stroke="#30363d" stroke-width="1"/>
<rect x="510" y="368" width="22" height="22" rx="4" ry="4" fill="#1b2230" stroke="#30363d" stroke-width="1"/>
<rect x="150" y="392" width="22" height="22" rx="4" ry="4" fill="#1b2230" stroke="#30363d" stroke-width="1"/>
<rect x="174" y="392" width="22" height="22" rx="4" ry="4" fill="#1b2230" stroke="#30363d" stroke-width="1"/>
<rect x="198" y="392" width="22" height="22" rx="4" ry="4" fill="#1b2230" stroke="#30363d" stroke-width="1"/>
<rect x="222" y="392" width="22" height="22" rx="4" ry="4" fill="#1b2230" stroke="#30363d" stroke-width="1"/>
<rect x="246" y="392" width="22" height="22" rx="4" ry="4" fill="#1b2230" stroke="#30363d" stroke-width="1"/>
<rect x="270" y="392" width="22" height="22" rx="4" ry="4" fill="#1b2230" stroke="#30363d" stroke-width="1"/>
<rect x="294" y="392" width="22" height="22" rx="4" ry="4" fill="#1b2230" stroke="#30363d" stroke-width="1"/>
<rect x="318" y="392" width="22" height="22" rx="4" ry="4" fill="#1b2230" stroke="#30363d" stroke-width="1"/>
<rect x="342" y="392" width="22" height="22" rx="4" ry="4" fill="#1b2230" stroke="#30363d" stroke-width="1"/>
<rect x="366" y="392" width="22" height="22" rx="4" ry="4" fill="#1b2230" stroke="#30363d" stroke-width="1"/>
<rect x="390" y="392" width="22" height="22" rx="4" ry="4" fill="#1b2230" stroke="#30363d" stroke-width="1"/>
<rect x="414" y="392" width="22" height="22" rx="4" ry="4" fill="#1b2230" stroke="#30363d" stroke-width="1"/>
<rect x="438" y="392" width="22" height="22" rx="4" ry="4" fill="#1b2230" stroke="#30363d" stroke-width="1"/>
<rect x="462" y="392" width="22" height="22" rx="4" ry="4" fill="#1b2230" stroke="#30363d" stroke-width="1"/>
<rect x="486" y="392" width="22" height="22" rx="4" ry="4" fill="#1b2230" stroke="#30363d" stroke-width="1"/>
<rect x="510" y="392" width="22" height="22" rx="4" ry="4" fill="#1b2230" stroke="#30363d" stroke-width="1"/>
<rect x="150" y="416" width="22" height="22" rx="4" ry="4" fill="#1b2230" stroke="#30363d" stroke-width="1"/>
<rect x="173" y="415" width="24" height="24" rx="5" ry="5" fill="#9A57E8" opacity="0.25"/>
<rect x="174" y="416" width="22" height="22" rx="4" ry="4" fill="#9A57E8"/>
<rect x="198" y="416" width="22" height="22" rx="4" ry="4" fill="#1b2230" stroke="#30363d" stroke-width="1"/>
<rect x="222" y="416" width="22" height="22" rx="4" ry="4" fill="#1b2230" stroke="#30363d" stroke-width="1"/>
<rect x="246" y="416" width="22" height="22" rx="4" ry="4" fill="#1b2230" stroke="#30363d" stroke-width="1"/>
<rect x="270" y="416" width="22" height="22" rx="4" ry="4" fill="#1b2230" stroke="#30363d" stroke-width="1"/>
<rect x="294" y="416" width="22" height="22" rx="4" ry="4" fill="#1b2230" stroke="#30363d" stroke-width="1"/>
<rect x="318" y="416" width="22" height="22" rx="4" ry="4" fill="#1b2230" stroke="#30363d" stroke-width="1"/>
<rect x="341" y="415" width="24" height="24" rx="5" ry="5" fill="#9A57E8" opacity="0.25"/>
<rect x="342" y="416" width="22" height="22" rx="4" ry="4" fill="#9A57E8"/>
<rect x="366" y="416" width="22" height="22" rx="4" ry="4" fill="#1b2230" stroke="#30363d" stroke-width="1"/>
<rect x="390" y="416" width="22" height="22" rx="4" ry="4" fill="#1b2230" stroke="#30363d" stroke-width="1"/>
<rect x="414" y="416" width="22" height="22" rx="4" ry="4" fill="#1b2230" stroke="#30363d" stroke-width="1"/>
<rect x="437" y="415" width="24" height="24" rx="5" ry="5" fill="#9A57E8" opacity="0.25"/>
<rect x="438" y="416" width="22" height="22" rx="4" ry="4" fill="#9A57E8"/>
<rect x="462" y="416" width="22" height="22" rx="4" ry="4" fill="#1b2230" stroke="#30363d" stroke-width="1"/>
<rect x="486" y="416" width="22" height="22" rx="4" ry="4" fill="#1b2230" stroke="#30363d" stroke-width="1"/>
<rect x="510" y="416" width="22" height="22" rx="4" ry="4" fill="#1b2230" stroke="#30363d" stroke-width="1"/>
<rect x="150" y="440" width="22" height="22" rx="4" ry="4" fill="#1b2230" stroke="#30363d" stroke-width="1"/>
<rect x="174" y="440" width="22" height="22" rx="4" ry="4" fill="#1b2230" stroke="#30363d" stroke-width="1"/>
<rect x="198" y="440" width="22" height="22" rx="4" ry="4" fill="#1b2230" stroke="#30363d" stroke-width="1"/>
<rect x="222" y="440" width="22" height="22" rx="4" ry="4" fill="#1b2230" stroke="#30363d" stroke-width="1"/>
<rect x="245" y="439" width="24" height="24" rx="5" ry="5" fill="#E6E6E6" opacity="0.25"/>
<rect x="246" y="440" width="22" height="22" rx="4" ry="4" fill="#E6E6E6"/>
<rect x="270" y="440" width="22" height="22" rx="4" ry="4" fill="#1b2230" stroke="#30363d" stroke-width="1"/>
<rect x="294" y="440" width="22" height="22" rx="4" ry="4" fill="#1b2230" stroke="#30363d" stroke-width="1"/>
<rect x="318" y="440" width="22" height="22" rx="4" ry="4" fill="#1b2230" stroke="#30363d" stroke-width="1"/>
<rect x="342" y="440" width="22" height="22" rx="4" ry="4" fill="#1b2230" stroke="#30363d" stroke-width="1"/>
<rect x="366" y="440" width="22" height="22" rx="4" ry="4" fill="#1b2230" stroke="#30363d" stroke-width="1"/>
<rect x="390" y="440" width="22" height="22" rx="4" ry="4" fill="#1b2230" stroke="#30363d" stroke-width="1"/>
<rect x="413" y="439" width="24" height="24" rx="5" ry="5" fill="#E6E6E6" opacity="0.25"/>
<rect x="414" y="440" width="22" height="22" rx="4" ry="4" fill="#E6E6E6"/>
<rect x="438" y="440" width="22" height="22" rx="4" ry="4" fill="#1b2230" stroke="#30363d" stroke-width="1"/>
<rect x="462" y="440" width="22" height="22" rx="4" ry="4" fill="#1b2230" stroke="#30363d" stroke-width="1"/>
<rect x="486" y="440" width="22" height="22" rx="4" ry="4" fill="#1b2230" stroke="#30363d" stroke-width="1"/>
<rect x="510" y="440" width="22" height="22" rx="4" ry="4" fill="#1b2230" stroke="#30363d" stroke-width="1"/>
<rect x="150" y="464" width="22" height="22" rx="4" ry="4" fill="#1b2230" stroke="#30363d" stroke-width="1"/>
<rect x="174" y="464" width="22" height="22" rx="4" ry="4" fill="#1b2230" stroke="#30363d" stroke-width="1"/>
<rect x="198" y="464" width="22" height="22" rx="4" ry="4" fill="#1b2230" stroke="#30363d" stroke-width="1"/>
<rect x="222" y="464" width="22" height="22" rx="4" ry="4" fill="#1b2230" stroke="#30363d" stroke-width="1"/>
<rect x="246" y="464" width="22" height="22" rx="4" ry="4" fill="#1b2230" stroke="#30363d" stroke-width="1"/>
<rect x="270" y="464" width="22" height="22" rx="4" ry="4" fill="#1b2230" stroke="#30363d" stroke-width="1"/>
<rect x="294" y="464" width="22" height="22" rx="4" ry="4" fill="#1b2230" stroke="#30363d" stroke-width="1"/>
<rect x="318" y="464" width="22" height="22" rx="4" ry="4" fill="#1b2230" stroke="#30363d" stroke-width="1"/>
<rect x="342" y="464" width="22" height="22" rx="4" ry="4" fill="#1b2230" stroke="#30363d" stroke-width="1"/>
<rect x="366" y="464" width="22" height="22" rx="4" ry="4" fill="#1b2230" stroke="#30363d" stroke-width="1"/>
<rect x="390" y="464" width="22" height="22" rx="4" ry="4" fill="#1b2230" stroke="#30363d" stroke-width="1"/>
<rect x="414" y="464" width="22" height="22" rx="4" ry="4" fill="#1b2230" stroke="#30363d" stroke-width="1"/>
<rect x="438" y="464" width="22" height="22" rx="4" ry="4" fill="#1b2230" stroke="#30363d" stroke-width="1"/>
<rect x="462" y="464" width="22" height="22" rx="4" ry="4" fill="#1b2230" stroke="#30363d" stroke-width="1"/>
<rect x="486" y="464" width="22" height="22" rx="4" ry="4" fill="#1b2230" stroke="#30363d" stroke-width="1"/>
<rect x="510" y="464" width="22" height="22" rx="4" ry="4" fill="#1b2230" stroke="#30363d" stroke-width="1"/>
<rect x="150" y="488" width="22" height="22" rx="4" ry="4" fill="#1b2230" stroke="#30363d" stroke-width="1"/>
<rect x="174" y="488" width="22" height="22" rx="4" ry="4" fill="#1b2230" stroke="#30363d" stroke-width="1"/>
<rect x="198" y="488" width="22" height="22" rx="4" ry="4" fill="#1b2230" stroke="#30363d" stroke-width="1"/>
<rect x="222" y="488" width="22" height="22" rx="4" ry="4" fill="#1b2230" stroke="#30363d" stroke-width="1"/>
<rect x="246" y="488" width="22" height="22" rx="4" ry="4" fill="#1b2230" stroke="#30363d" stroke-width="1"/>
<rect x="270" y="488" width="22" height="22" rx="4" ry="4" fill="#1b2230" stroke="#30363d" stroke-width="1"/>
<rect x="294" y="488" width="22" height="22" rx="4" ry="4" fill="#1b2230" stroke="#30363d" stroke-width="1"/>
<rect x="318" y="488" width="22" height="22" rx="4" ry="4" fill="#1b2230" stroke="#30363d" stroke-width="1"/>
<rect x="342" y="488" width="22" height="22" rx="4" ry="4" fill="#1b2230" stroke="#30363d" stroke-width="1"/>
<rect x="366" y="488" width="22" height="22" rx="4" ry="4" fill="#1b2230" stroke="#30363d" stroke-width="1"/>
<rect x="390" y="488" width="22" height="22" rx="4" ry="4" fill="#1b2230" stroke="#30363d" stroke-width="1"/>
<rect x="414" y="488" width="22" height="22" rx="4" ry="4" fill="#1b2230" stroke="#30363d" stroke-width="1"/>
<rect x="438" y="488" width="22" height="22" rx="4" ry="4" fill="#1b2230" stroke="#30363d" stroke-width="1"/>
<rect x="462" y="488" width="22" height="22" rx="4" ry="4" fill="#1b2230" stroke="#30363d" stroke-width="1"/>
<rect x="486" y="488" width="22" height="22" rx="4" ry="4" fill="#1b2230" stroke="#30363d" stroke-width="1"/>
<rect x="510" y="488" width="22" height="22" rx="4" ry="4" fill="#1b2230" stroke="#30363d" stroke-width="1"/>
<circle cx="185.0" cy="355.0" r="9" fill="#ffffff" opacity="0.18"/>
<circle cx="185.0" cy="355.0" r="4.5" fill="#ffffff"/>
<line x1="150" y1="98" x2="532" y2="98" stroke="#9aa4b2" stroke-width="1.5" stroke-linecap="round"/>
<polygon points="532,98 524,94 524,102" fill="#9aa4b2"/>
<text x="150" y="92" font-family="'Segoe UI',Helvetica,Arial,sans-serif" font-size="12" fill="#9aa4b2" text-anchor="start" font-weight="400">STEP (1 → 16)</text>
<line x1="124" y1="128" x2="124" y2="510" stroke="#9aa4b2" stroke-width="1.5" stroke-linecap="round"/>
<polygon points="124,510 120,502 128,502" fill="#9aa4b2"/>
<text x="114" y="320.0" font-family="'Segoe UI',Helvetica,Arial,sans-serif" font-size="12" fill="#9aa4b2" text-anchor="middle" transform="rotate(-90 114 320.0)">VOCI (8 campioni + synth)</text>
<rect x="150" y="536" width="14" height="14" rx="4" ry="4" fill="#E83A3A"/>
<text x="172" y="548" font-family="'Segoe UI',Helvetica,Arial,sans-serif" font-size="12.5" fill="#9aa4b2" text-anchor="start" font-weight="400">nota (voce)</text>
<rect x="292" y="536" width="14" height="14" rx="4" ry="4" fill="#1b2230" stroke="#30363d" stroke-width="1"/>
<text x="314" y="548" font-family="'Segoe UI',Helvetica,Arial,sans-serif" font-size="12.5" fill="#9aa4b2" text-anchor="start" font-weight="400">step vuoto</text>
<circle cx="426" cy="543" r="5" fill="#ffffff"/>
<text x="438" y="548" font-family="'Segoe UI',Helvetica,Arial,sans-serif" font-size="12.5" fill="#9aa4b2" text-anchor="start" font-weight="400">cursore</text>
<rect x="504" y="536" width="14" height="14" rx="4" ry="4" fill="#ffffff" opacity="0.5"/>
<text x="526" y="548" font-family="'Segoe UI',Helvetica,Arial,sans-serif" font-size="12.5" fill="#9aa4b2" text-anchor="start" font-weight="400">testina ▼</text>
</svg>
