<svg xmlns="http://www.w3.org/2000/svg" viewBox="0 0 860 518" width="860" height="518" role="img">
<rect x="0" y="0" width="860" height="999" rx="0" ry="0" fill="#0d1117"/>
<text x="28" y="40" font-family="'Segoe UI',Helvetica,Arial,sans-serif" font-size="22" fill="#e6edf3" text-anchor="start" font-weight="700">Mappa delle modalità — cosa fa ogni encoder</text>
<text x="28" y="64" font-family="'Segoe UI',Helvetica,Arial,sans-serif" font-size="13.5" fill="#9aa4b2" text-anchor="start" font-weight="400">I 4 encoder cambiano funzione col modo. I 3 pulsanti restano costanti.</text>
<line x1="28" y1="78" x2="832" y2="78" stroke="#30363d" stroke-width="1" stroke-linecap="round"/>
<rect x="28" y="100" width="120" height="46" rx="7" ry="7" fill="#10212e" stroke="#1f6feb" stroke-width="1"/>
<text x="88.0" y="127.0" font-family="'Segoe UI',Helvetica,Arial,sans-serif" font-size="12.5" fill="#e6edf3" text-anchor="middle" font-weight="700"></text>
<rect x="148" y="100" width="168" height="46" rx="7" ry="7" fill="#10212e" stroke="#1f6feb" stroke-width="1"/>
<text x="232.0" y="127.0" font-family="'Segoe UI',Helvetica,Arial,sans-serif" font-size="12.5" fill="#e6edf3" text-anchor="middle" font-weight="700">E1 ruota</text>
<rect x="316" y="100" width="168" height="46" rx="7" ry="7" fill="#10212e" stroke="#1f6feb" stroke-width="1"/>
<text x="400.0" y="127.0" font-family="'Segoe UI',Helvetica,Arial,sans-serif" font-size="12.5" fill="#e6edf3" text-anchor="middle" font-weight="700">E2 ruota</text>
<rect x="484" y="100" width="168" height="46" rx="7" ry="7" fill="#10212e" stroke="#1f6feb" stroke-width="1"/>
<text x="568.0" y="127.0" font-family="'Segoe UI',Helvetica,Arial,sans-serif" font-size="12.5" fill="#e6edf3" text-anchor="middle" font-weight="700">E3 ruota</text>
<rect x="652" y="100" width="168" height="46" rx="7" ry="7" fill="#10212e" stroke="#1f6feb" stroke-width="1"/>
<text x="736.0" y="127.0" font-family="'Segoe UI',Helvetica,Arial,sans-serif" font-size="12.5" fill="#e6edf3" text-anchor="middle" font-weight="700">E4 ruota</text>
<rect x="28" y="146" width="120" height="46" rx="7" ry="7" fill="#1b2230" stroke="#30363d" stroke-width="1"/>
<rect x="36" y="155" width="6" height="28" rx="3" ry="3" fill="#e6edf3"/>
<text x="50" y="173.0" font-family="'Segoe UI',Helvetica,Arial,sans-serif" font-size="12.5" fill="#e6edf3" text-anchor="start" font-weight="700">DRAW</text>
<rect x="148" y="146" width="168" height="46" rx="7" ry="7" fill="#161b22" stroke="#30363d" stroke-width="1"/>
<text x="232.0" y="173.0" font-family="'Segoe UI',Helvetica,Arial,sans-serif" font-size="11.5" fill="#e6edf3" text-anchor="middle" font-weight="400">Y / nota</text>
<rect x="316" y="146" width="168" height="46" rx="7" ry="7" fill="#161b22" stroke="#30363d" stroke-width="1"/>
<text x="400.0" y="173.0" font-family="'Segoe UI',Helvetica,Arial,sans-serif" font-size="11.5" fill="#e6edf3" text-anchor="middle" font-weight="400">pagina</text>
<rect x="484" y="146" width="168" height="46" rx="7" ry="7" fill="#161b22" stroke="#30363d" stroke-width="1"/>
<text x="568.0" y="173.0" font-family="'Segoe UI',Helvetica,Arial,sans-serif" font-size="11.5" fill="#e6edf3" text-anchor="middle" font-weight="400">filtro rapido</text>
<rect x="652" y="146" width="168" height="46" rx="7" ry="7" fill="#161b22" stroke="#30363d" stroke-width="1"/>
<text x="736.0" y="173.0" font-family="'Segoe UI',Helvetica,Arial,sans-serif" font-size="11.5" fill="#e6edf3" text-anchor="middle" font-weight="400">X / colonna</text>
<rect x="28" y="192" width="120" height="46" rx="7" ry="7" fill="#1b2230" stroke="#30363d" stroke-width="1"/>
<rect x="36" y="201" width="6" height="28" rx="3" ry="3" fill="#3A6BE8"/>
<text x="50" y="219.0" font-family="'Segoe UI',Helvetica,Arial,sans-serif" font-size="12.5" fill="#e6edf3" text-anchor="start" font-weight="700">SINGLE</text>
<rect x="148" y="192" width="168" height="46" rx="7" ry="7" fill="#161b22" stroke="#30363d" stroke-width="1"/>
<text x="232.0" y="219.0" font-family="'Segoe UI',Helvetica,Arial,sans-serif" font-size="11.5" fill="#e6edf3" text-anchor="middle" font-weight="400">canale</text>
<rect x="316" y="192" width="168" height="46" rx="7" ry="7" fill="#161b22" stroke="#30363d" stroke-width="1"/>
<text x="400.0" y="219.0" font-family="'Segoe UI',Helvetica,Arial,sans-serif" font-size="11.5" fill="#e6edf3" text-anchor="middle" font-weight="400">nota (pitch)</text>
<rect x="484" y="192" width="168" height="46" rx="7" ry="7" fill="#161b22" stroke="#30363d" stroke-width="1"/>
<text x="568.0" y="219.0" font-family="'Segoe UI',Helvetica,Arial,sans-serif" font-size="11.5" fill="#9aa4b2" text-anchor="middle" font-weight="400">—</text>
<rect x="652" y="192" width="168" height="46" rx="7" ry="7" fill="#161b22" stroke="#30363d" stroke-width="1"/>
<text x="736.0" y="219.0" font-family="'Segoe UI',Helvetica,Arial,sans-serif" font-size="11.5" fill="#e6edf3" text-anchor="middle" font-weight="400">X / colonna</text>
<rect x="28" y="238" width="120" height="46" rx="7" ry="7" fill="#1b2230" stroke="#30363d" stroke-width="1"/>
<rect x="36" y="247" width="6" height="28" rx="3" ry="3" fill="#00FFFF"/>
<text x="50" y="265.0" font-family="'Segoe UI',Helvetica,Arial,sans-serif" font-size="12.5" fill="#e6edf3" text-anchor="start" font-weight="700">FILTER</text>
<rect x="148" y="238" width="168" height="46" rx="7" ry="7" fill="#161b22" stroke="#30363d" stroke-width="1"/>
<text x="232.0" y="265.0" font-family="'Segoe UI',Helvetica,Arial,sans-serif" font-size="11.5" fill="#e6edf3" text-anchor="middle" font-weight="400">slider 1</text>
<rect x="316" y="238" width="168" height="46" rx="7" ry="7" fill="#161b22" stroke="#30363d" stroke-width="1"/>
<text x="400.0" y="265.0" font-family="'Segoe UI',Helvetica,Arial,sans-serif" font-size="11.5" fill="#e6edf3" text-anchor="middle" font-weight="400">slider 2</text>
<rect x="484" y="238" width="168" height="46" rx="7" ry="7" fill="#161b22" stroke="#30363d" stroke-width="1"/>
<text x="568.0" y="265.0" font-family="'Segoe UI',Helvetica,Arial,sans-serif" font-size="11.5" fill="#e6edf3" text-anchor="middle" font-weight="400">slider 3</text>
<rect x="652" y="238" width="168" height="46" rx="7" ry="7" fill="#161b22" stroke="#30363d" stroke-width="1"/>
<text x="736.0" y="265.0" font-family="'Segoe UI',Helvetica,Arial,sans-serif" font-size="11.5" fill="#e6edf3" text-anchor="middle" font-weight="400">slider 4</text>
<rect x="28" y="284" width="120" height="46" rx="7" ry="7" fill="#1b2230" stroke="#30363d" stroke-width="1"/>
<rect x="36" y="293" width="6" height="28" rx="3" ry="3" fill="#36C24A"/>
<text x="50" y="311.0" font-family="'Segoe UI',Helvetica,Arial,sans-serif" font-size="12.5" fill="#e6edf3" text-anchor="start" font-weight="700">MENU</text>
<rect x="148" y="284" width="168" height="46" rx="7" ry="7" fill="#161b22" stroke="#30363d" stroke-width="1"/>
<text x="232.0" y="311.0" font-family="'Segoe UI',Helvetica,Arial,sans-serif" font-size="11.5" fill="#9aa4b2" text-anchor="middle" font-weight="400">—</text>
<rect x="316" y="284" width="168" height="46" rx="7" ry="7" fill="#161b22" stroke="#30363d" stroke-width="1"/>
<text x="400.0" y="311.0" font-family="'Segoe UI',Helvetica,Arial,sans-serif" font-size="11.5" fill="#e6edf3" text-anchor="middle" font-weight="400">valore</text>
<rect x="484" y="284" width="168" height="46" rx="7" ry="7" fill="#161b22" stroke="#30363d" stroke-width="1"/>
<text x="568.0" y="311.0" font-family="'Segoe UI',Helvetica,Arial,sans-serif" font-size="11.5" fill="#e6edf3" text-anchor="middle" font-weight="400">valore</text>
<rect x="652" y="284" width="168" height="46" rx="7" ry="7" fill="#161b22" stroke="#30363d" stroke-width="1"/>
<text x="736.0" y="311.0" font-family="'Segoe UI',Helvetica,Arial,sans-serif" font-size="11.5" fill="#e6edf3" text-anchor="middle" font-weight="400">naviga pagine</text>
<rect x="28" y="330" width="120" height="46" rx="7" ry="7" fill="#1b2230" stroke="#30363d" stroke-width="1"/>
<rect x="36" y="339" width="6" height="28" rx="3" ry="3" fill="#E83AA6"/>
<text x="50" y="357.0" font-family="'Segoe UI',Helvetica,Arial,sans-serif" font-size="12.5" fill="#e6edf3" text-anchor="start" font-weight="700">VELOCITY</text>
<rect x="148" y="330" width="168" height="46" rx="7" ry="7" fill="#161b22" stroke="#30363d" stroke-width="1"/>
<text x="232.0" y="357.0" font-family="'Segoe UI',Helvetica,Arial,sans-serif" font-size="11.5" fill="#e6edf3" text-anchor="middle" font-weight="400">velocity</text>
<rect x="316" y="330" width="168" height="46" rx="7" ry="7" fill="#161b22" stroke="#30363d" stroke-width="1"/>
<text x="400.0" y="357.0" font-family="'Segoe UI',Helvetica,Arial,sans-serif" font-size="11.5" fill="#e6edf3" text-anchor="middle" font-weight="400">probabilità</text>
<rect x="484" y="330" width="168" height="46" rx="7" ry="7" fill="#161b22" stroke="#30363d" stroke-width="1"/>
<text x="568.0" y="357.0" font-family="'Segoe UI',Helvetica,Arial,sans-serif" font-size="11.5" fill="#e6edf3" text-anchor="middle" font-weight="400">volume canale</text>
<rect x="652" y="330" width="168" height="46" rx="7" ry="7" fill="#161b22" stroke="#30363d" stroke-width="1"/>
<text x="736.0" y="357.0" font-family="'Segoe UI',Helvetica,Arial,sans-serif" font-size="11.5" fill="#e6edf3" text-anchor="middle" font-weight="400">condizione</text>
<rect x="28" y="376" width="120" height="46" rx="7" ry="7" fill="#1b2230" stroke="#30363d" stroke-width="1"/>
<rect x="36" y="385" width="6" height="28" rx="3" ry="3" fill="#E8D23A"/>
<text x="50" y="403.0" font-family="'Segoe UI',Helvetica,Arial,sans-serif" font-size="12.5" fill="#e6edf3" text-anchor="start" font-weight="700">SONG</text>
<rect x="148" y="376" width="168" height="46" rx="7" ry="7" fill="#161b22" stroke="#30363d" stroke-width="1"/>
<text x="232.0" y="403.0" font-family="'Segoe UI',Helvetica,Arial,sans-serif" font-size="11.5" fill="#9aa4b2" text-anchor="middle" font-weight="400">—</text>
<rect x="316" y="376" width="168" height="46" rx="7" ry="7" fill="#161b22" stroke="#30363d" stroke-width="1"/>
<text x="400.0" y="403.0" font-family="'Segoe UI',Helvetica,Arial,sans-serif" font-size="11.5" fill="#e6edf3" text-anchor="middle" font-weight="400">pattern</text>
<rect x="484" y="376" width="168" height="46" rx="7" ry="7" fill="#161b22" stroke="#30363d" stroke-width="1"/>
<text x="568.0" y="403.0" font-family="'Segoe UI',Helvetica,Arial,sans-serif" font-size="11.5" fill="#9aa4b2" text-anchor="middle" font-weight="400">—</text>
<rect x="652" y="376" width="168" height="46" rx="7" ry="7" fill="#161b22" stroke="#30363d" stroke-width="1"/>
<text x="736.0" y="403.0" font-family="'Segoe UI',Helvetica,Arial,sans-serif" font-size="11.5" fill="#e6edf3" text-anchor="middle" font-weight="400">posizione</text>
<text x="28" y="436" font-family="'Segoe UI',Helvetica,Arial,sans-serif" font-size="12" fill="#9aa4b2" text-anchor="start" font-weight="600">I 3 pulsanti (sempre attivi):</text>
<rect x="28.0" y="446" width="257.3333333333333" height="46" rx="8" ry="8" fill="#161b22" stroke="#36C24A" stroke-width="2"/>
<text x="42.0" y="466" font-family="'Segoe UI',Helvetica,Arial,sans-serif" font-size="12.5" fill="#e6edf3" text-anchor="start" font-weight="700">B1 PLAY</text>
<text x="42.0" y="483" font-family="'Segoe UI',Helvetica,Arial,sans-serif" font-size="10" fill="#9aa4b2" text-anchor="start" font-weight="400">play/pausa · SINGLE · esci</text>
<rect x="301.3333333333333" y="446" width="257.3333333333333" height="46" rx="8" ry="8" fill="#161b22" stroke="#E8D23A" stroke-width="2"/>
<text x="315.3333333333333" y="466" font-family="'Segoe UI',Helvetica,Arial,sans-serif" font-size="12.5" fill="#e6edf3" text-anchor="start" font-weight="700">B2 MENU</text>
<text x="315.3333333333333" y="483" font-family="'Segoe UI',Helvetica,Arial,sans-serif" font-size="10" fill="#9aa4b2" text-anchor="start" font-weight="400">menu · tieni = FX MODE</text>
<rect x="574.6666666666666" y="446" width="257.3333333333333" height="46" rx="8" ry="8" fill="#161b22" stroke="#E83A3A" stroke-width="2"/>
<text x="588.6666666666666" y="466" font-family="'Segoe UI',Helvetica,Arial,sans-serif" font-size="12.5" fill="#e6edf3" text-anchor="start" font-weight="700">B3 REC</text>
<text x="588.6666666666666" y="483" font-family="'Segoe UI',Helvetica,Arial,sans-serif" font-size="10" fill="#9aa4b2" text-anchor="start" font-weight="400">rec · tap-tempo · tieni = count-in</text>
</svg>
