<svg xmlns="http://www.w3.org/2000/svg" viewBox="0 0 920 640" width="920" height="640" role="img">
<rect x="0" y="0" width="920" height="999" rx="0" ry="0" fill="#0d1117"/>
<text x="28" y="40" font-family="'Segoe UI',Helvetica,Arial,sans-serif" font-size="22" fill="#e6edf3" text-anchor="start" font-weight="700">Mappa delle modalità — cosa fa ogni encoder</text>
<text x="28" y="64" font-family="'Segoe UI',Helvetica,Arial,sans-serif" font-size="13.5" fill="#9aa4b2" text-anchor="start" font-weight="400">Le 4 manopole (E1–E4) cambiano funzione in base alla modalità attiva. I 3 pulsanti restano costanti.</text>
<line x1="28" y1="78" x2="892" y2="78" stroke="#30363d" stroke-width="1" stroke-linecap="round"/>

<!-- Header row -->
<rect x="28" y="100" width="170" height="38" rx="8" ry="8" fill="#161b22" stroke="#30363d" stroke-width="1.5"/>
<text x="113" y="124" font-family="'Segoe UI',Helvetica,Arial,sans-serif" font-size="13" fill="#9aa4b2" text-anchor="middle" font-weight="700">MODO</text>
<rect x="202" y="100" width="168" height="38" rx="8" ry="8" fill="#161b22" stroke="#3A6BE8" stroke-width="1.5"/>
<text x="286" y="124" font-family="'Segoe UI',Helvetica,Arial,sans-serif" font-size="13" fill="#e6edf3" text-anchor="middle" font-weight="700">E1 (SX)</text>
<rect x="374" y="100" width="168" height="38" rx="8" ry="8" fill="#161b22" stroke="#36C24A" stroke-width="1.5"/>
<text x="458" y="124" font-family="'Segoe UI',Helvetica,Arial,sans-serif" font-size="13" fill="#e6edf3" text-anchor="middle" font-weight="700">E2</text>
<rect x="546" y="100" width="168" height="38" rx="8" ry="8" fill="#161b22" stroke="#FF8A1A" stroke-width="1.5"/>
<text x="630" y="124" font-family="'Segoe UI',Helvetica,Arial,sans-serif" font-size="13" fill="#e6edf3" text-anchor="middle" font-weight="700">E3</text>
<rect x="718" y="100" width="168" height="38" rx="8" ry="8" fill="#161b22" stroke="#E83AA6" stroke-width="1.5"/>
<text x="802" y="124" font-family="'Segoe UI',Helvetica,Arial,sans-serif" font-size="13" fill="#e6edf3" text-anchor="middle" font-weight="700">E4 (DX)</text>

<!-- Row DRAW -->
<rect x="28" y="144" width="170" height="44" rx="8" ry="8" fill="#161b22" stroke="#e6edf3" stroke-width="2"/>
<text x="113" y="165" font-family="'Segoe UI',Helvetica,Arial,sans-serif" font-size="13.5" fill="#e6edf3" text-anchor="middle" font-weight="700">DRAW</text>
<text x="113" y="181" font-family="'Segoe UI',Helvetica,Arial,sans-serif" font-size="10" fill="#9aa4b2" text-anchor="middle" font-weight="400">schermata principale</text>
<rect x="202" y="144" width="168" height="44" rx="8" ry="8" fill="#1b2230" stroke="#30363d" stroke-width="1"/>
<text x="286" y="171" font-family="'Segoe UI',Helvetica,Arial,sans-serif" font-size="11.5" fill="#e6edf3" text-anchor="middle" font-weight="400">Y / nota</text>
<rect x="374" y="144" width="168" height="44" rx="8" ry="8" fill="#1b2230" stroke="#30363d" stroke-width="1"/>
<text x="458" y="171" font-family="'Segoe UI',Helvetica,Arial,sans-serif" font-size="11.5" fill="#e6edf3" text-anchor="middle" font-weight="400">pagina</text>
<rect x="546" y="144" width="168" height="44" rx="8" ry="8" fill="#1b2230" stroke="#30363d" stroke-width="1"/>
<text x="630" y="171" font-family="'Segoe UI',Helvetica,Arial,sans-serif" font-size="11.5" fill="#e6edf3" text-anchor="middle" font-weight="400">volume canale</text>
<rect x="718" y="144" width="168" height="44" rx="8" ry="8" fill="#1b2230" stroke="#30363d" stroke-width="1"/>
<text x="802" y="171" font-family="'Segoe UI',Helvetica,Arial,sans-serif" font-size="11.5" fill="#e6edf3" text-anchor="middle" font-weight="400">X / colonna · filtro</text>

<!-- Row SINGLE -->
<rect x="28" y="194" width="170" height="44" rx="8" ry="8" fill="#161b22" stroke="#3A6BE8" stroke-width="2"/>
<text x="113" y="215" font-family="'Segoe UI',Helvetica,Arial,sans-serif" font-size="13.5" fill="#e6edf3" text-anchor="middle" font-weight="700">SINGLE</text>
<text x="113" y="231" font-family="'Segoe UI',Helvetica,Arial,sans-serif" font-size="10" fill="#9aa4b2" text-anchor="middle" font-weight="400">una voce a schermo</text>
<rect x="202" y="194" width="168" height="44" rx="8" ry="8" fill="#1b2230" stroke="#30363d" stroke-width="1"/>
<text x="286" y="221" font-family="'Segoe UI',Helvetica,Arial,sans-serif" font-size="11.5" fill="#e6edf3" text-anchor="middle" font-weight="400">canale</text>
<rect x="374" y="194" width="168" height="44" rx="8" ry="8" fill="#1b2230" stroke="#30363d" stroke-width="1"/>
<text x="458" y="221" font-family="'Segoe UI',Helvetica,Arial,sans-serif" font-size="11.5" fill="#e6edf3" text-anchor="middle" font-weight="400">nota (pitch)</text>
<rect x="546" y="194" width="168" height="44" rx="8" ry="8" fill="#1b2230" stroke="#30363d" stroke-width="1"/>
<text x="630" y="221" font-family="'Segoe UI',Helvetica,Arial,sans-serif" font-size="11.5" fill="#9aa4b2" text-anchor="middle" font-weight="400">—</text>
<rect x="718" y="194" width="168" height="44" rx="8" ry="8" fill="#1b2230" stroke="#30363d" stroke-width="1"/>
<text x="802" y="221" font-family="'Segoe UI',Helvetica,Arial,sans-serif" font-size="11.5" fill="#e6edf3" text-anchor="middle" font-weight="400">X / colonna</text>

<!-- Row FILTER -->
<rect x="28" y="244" width="170" height="44" rx="8" ry="8" fill="#161b22" stroke="#FF8A1A" stroke-width="2"/>
<text x="113" y="265" font-family="'Segoe UI',Helvetica,Arial,sans-serif" font-size="13.5" fill="#e6edf3" text-anchor="middle" font-weight="700">FILTER</text>
<text x="113" y="281" font-family="'Segoe UI',Helvetica,Arial,sans-serif" font-size="10" fill="#9aa4b2" text-anchor="middle" font-weight="400">combo B1+B2</text>
<rect x="202" y="244" width="168" height="44" rx="8" ry="8" fill="#1b2230" stroke="#30363d" stroke-width="1"/>
<text x="286" y="271" font-family="'Segoe UI',Helvetica,Arial,sans-serif" font-size="11.5" fill="#e6edf3" text-anchor="middle" font-weight="400">slider 1</text>
<rect x="374" y="244" width="168" height="44" rx="8" ry="8" fill="#1b2230" stroke="#30363d" stroke-width="1"/>
<text x="458" y="271" font-family="'Segoe UI',Helvetica,Arial,sans-serif" font-size="11.5" fill="#e6edf3" text-anchor="middle" font-weight="400">slider 2</text>
<rect x="546" y="244" width="168" height="44" rx="8" ry="8" fill="#1b2230" stroke="#30363d" stroke-width="1"/>
<text x="630" y="271" font-family="'Segoe UI',Helvetica,Arial,sans-serif" font-size="11.5" fill="#e6edf3" text-anchor="middle" font-weight="400">slider 3</text>
<rect x="718" y="244" width="168" height="44" rx="8" ry="8" fill="#1b2230" stroke="#30363d" stroke-width="1"/>
<text x="802" y="271" font-family="'Segoe UI',Helvetica,Arial,sans-serif" font-size="11.5" fill="#e6edf3" text-anchor="middle" font-weight="400">slider 4</text>

<!-- Row MENU -->
<rect x="28" y="294" width="170" height="44" rx="8" ry="8" fill="#161b22" stroke="#2AD4B8" stroke-width="2"/>
<text x="113" y="315" font-family="'Segoe UI',Helvetica,Arial,sans-serif" font-size="13.5" fill="#e6edf3" text-anchor="middle" font-weight="700">MENU</text>
<text x="113" y="331" font-family="'Segoe UI',Helvetica,Arial,sans-serif" font-size="10" fill="#9aa4b2" text-anchor="middle" font-weight="400">salva / carica</text>
<rect x="202" y="294" width="168" height="44" rx="8" ry="8" fill="#1b2230" stroke="#30363d" stroke-width="1"/>
<text x="286" y="321" font-family="'Segoe UI',Helvetica,Arial,sans-serif" font-size="11.5" fill="#9aa4b2" text-anchor="middle" font-weight="400">—</text>
<rect x="374" y="294" width="168" height="44" rx="8" ry="8" fill="#1b2230" stroke="#30363d" stroke-width="1"/>
<text x="458" y="321" font-family="'Segoe UI',Helvetica,Arial,sans-serif" font-size="11.5" fill="#e6edf3" text-anchor="middle" font-weight="400">valore</text>
<rect x="546" y="294" width="168" height="44" rx="8" ry="8" fill="#1b2230" stroke="#30363d" stroke-width="1"/>
<text x="630" y="321" font-family="'Segoe UI',Helvetica,Arial,sans-serif" font-size="11.5" fill="#e6edf3" text-anchor="middle" font-weight="400">valore</text>
<rect x="718" y="294" width="168" height="44" rx="8" ry="8" fill="#1b2230" stroke="#30363d" stroke-width="1"/>
<text x="802" y="321" font-family="'Segoe UI',Helvetica,Arial,sans-serif" font-size="11.5" fill="#e6edf3" text-anchor="middle" font-weight="400">naviga pagine</text>

<!-- Row VELOCITY -->
<rect x="28" y="344" width="170" height="44" rx="8" ry="8" fill="#161b22" stroke="#9A57E8" stroke-width="2"/>
<text x="113" y="365" font-family="'Segoe UI',Helvetica,Arial,sans-serif" font-size="13.5" fill="#e6edf3" text-anchor="middle" font-weight="700">VELOCITY</text>
<text x="113" y="381" font-family="'Segoe UI',Helvetica,Arial,sans-serif" font-size="10" fill="#9aa4b2" text-anchor="middle" font-weight="400">dinamica passo</text>
<rect x="202" y="344" width="168" height="44" rx="8" ry="8" fill="#1b2230" stroke="#30363d" stroke-width="1"/>
<text x="286" y="371" font-family="'Segoe UI',Helvetica,Arial,sans-serif" font-size="11.5" fill="#e6edf3" text-anchor="middle" font-weight="400">velocity</text>
<rect x="374" y="344" width="168" height="44" rx="8" ry="8" fill="#1b2230" stroke="#30363d" stroke-width="1"/>
<text x="458" y="371" font-family="'Segoe UI',Helvetica,Arial,sans-serif" font-size="11.5" fill="#e6edf3" text-anchor="middle" font-weight="400">probabilità</text>
<rect x="546" y="344" width="168" height="44" rx="8" ry="8" fill="#1b2230" stroke="#30363d" stroke-width="1"/>
<text x="630" y="371" font-family="'Segoe UI',Helvetica,Arial,sans-serif" font-size="11.5" fill="#e6edf3" text-anchor="middle" font-weight="400">volume canale</text>
<rect x="718" y="344" width="168" height="44" rx="8" ry="8" fill="#1b2230" stroke="#30363d" stroke-width="1"/>
<text x="802" y="371" font-family="'Segoe UI',Helvetica,Arial,sans-serif" font-size="11.5" fill="#e6edf3" text-anchor="middle" font-weight="400">condizione / timing</text>

<!-- Row SONG -->
<rect x="28" y="394" width="170" height="44" rx="8" ry="8" fill="#161b22" stroke="#E83A3A" stroke-width="2"/>
<text x="113" y="415" font-family="'Segoe UI',Helvetica,Arial,sans-serif" font-size="13.5" fill="#e6edf3" text-anchor="middle" font-weight="700">SONG</text>
<text x="113" y="431" font-family="'Segoe UI',Helvetica,Arial,sans-serif" font-size="10" fill="#9aa4b2" text-anchor="middle" font-weight="400">catena di pattern</text>
<rect x="202" y="394" width="168" height="44" rx="8" ry="8" fill="#1b2230" stroke="#30363d" stroke-width="1"/>
<text x="286" y="421" font-family="'Segoe UI',Helvetica,Arial,sans-serif" font-size="11.5" fill="#9aa4b2" text-anchor="middle" font-weight="400">—</text>
<rect x="374" y="394" width="168" height="44" rx="8" ry="8" fill="#1b2230" stroke="#30363d" stroke-width="1"/>
<text x="458" y="421" font-family="'Segoe UI',Helvetica,Arial,sans-serif" font-size="11.5" fill="#e6edf3" text-anchor="middle" font-weight="400">pattern</text>
<rect x="546" y="394" width="168" height="44" rx="8" ry="8" fill="#1b2230" stroke="#30363d" stroke-width="1"/>
<text x="630" y="421" font-family="'Segoe UI',Helvetica,Arial,sans-serif" font-size="11.5" fill="#9aa4b2" text-anchor="middle" font-weight="400">—</text>
<rect x="718" y="394" width="168" height="44" rx="8" ry="8" fill="#1b2230" stroke="#30363d" stroke-width="1"/>
<text x="802" y="421" font-family="'Segoe UI',Helvetica,Arial,sans-serif" font-size="11.5" fill="#e6edf3" text-anchor="middle" font-weight="400">posizione (1-64)</text>

<!-- Buttons strip -->
<line x1="28" y1="466" x2="892" y2="466" stroke="#30363d" stroke-width="1" stroke-linecap="round"/>
<text x="28" y="496" font-family="'Segoe UI',Helvetica,Arial,sans-serif" font-size="14" fill="#e6edf3" text-anchor="start" font-weight="700">I 3 pulsanti (costanti in ogni modalità)</text>

<rect x="28" y="512" width="278" height="86" rx="10" ry="10" fill="#161b22" stroke="#36C24A" stroke-width="2"/>
<text x="167" y="540" font-family="'Segoe UI',Helvetica,Arial,sans-serif" font-size="15" fill="#e6edf3" text-anchor="middle" font-weight="700">B1 · PLAY</text>
<text x="167" y="562" font-family="'Segoe UI',Helvetica,Arial,sans-serif" font-size="11.5" fill="#9aa4b2" text-anchor="middle" font-weight="400">play/pausa · toggle SINGLE</text>
<text x="167" y="580" font-family="'Segoe UI',Helvetica,Arial,sans-serif" font-size="11.5" fill="#9aa4b2" text-anchor="middle" font-weight="400">esci verso DRAW</text>

<rect x="321" y="512" width="278" height="86" rx="10" ry="10" fill="#161b22" stroke="#FFD23A" stroke-width="2"/>
<text x="460" y="540" font-family="'Segoe UI',Helvetica,Arial,sans-serif" font-size="15" fill="#e6edf3" text-anchor="middle" font-weight="700">B2 · MENU</text>
<text x="460" y="562" font-family="'Segoe UI',Helvetica,Arial,sans-serif" font-size="11.5" fill="#9aa4b2" text-anchor="middle" font-weight="400">entra/esci menu</text>
<text x="460" y="580" font-family="'Segoe UI',Helvetica,Arial,sans-serif" font-size="11.5" fill="#9aa4b2" text-anchor="middle" font-weight="400">tieni = FX MODE · combo = FILTER</text>

<rect x="614" y="512" width="278" height="86" rx="10" ry="10" fill="#161b22" stroke="#E83A3A" stroke-width="2"/>
<text x="753" y="540" font-family="'Segoe UI',Helvetica,Arial,sans-serif" font-size="15" fill="#e6edf3" text-anchor="middle" font-weight="700">B3 · REC</text>
<text x="753" y="562" font-family="'Segoe UI',Helvetica,Arial,sans-serif" font-size="11.5" fill="#9aa4b2" text-anchor="middle" font-weight="400">registra (tap o tieni) · pausa</text>
<text x="753" y="580" font-family="'Segoe UI',Helvetica,Arial,sans-serif" font-size="11.5" fill="#9aa4b2" text-anchor="middle" font-weight="400">tieni = count-in · tap-tempo BPM</text>
</svg>
