<svg xmlns="http://www.w3.org/2000/svg" viewBox="0 0 640 470" width="640" height="470" role="img">
<rect x="0" y="0" width="640" height="999" rx="0" ry="0" fill="#0d1117"/>
<text x="28" y="40" font-family="'Segoe UI',Helvetica,Arial,sans-serif" font-size="22" fill="#e6edf3" text-anchor="start" font-weight="700">Struttura della micro SD</text>
<text x="28" y="64" font-family="'Segoe UI',Helvetica,Arial,sans-serif" font-size="13.5" fill="#9aa4b2" text-anchor="start" font-weight="400">Dove il NI404 cerca campioni, sample-pack e song.</text>
<line x1="28" y1="78" x2="612" y2="78" stroke="#30363d" stroke-width="1" stroke-linecap="round"/>
<rect x="28" y="100" width="150" height="56" rx="8" ry="8" fill="#10212e" stroke="#1f6feb" stroke-width="1.5"/>
<path d="M40 100 v-0 h12 v0" fill="none"/>
<text x="103" y="124" font-family="'Segoe UI',Helvetica,Arial,sans-serif" font-size="13.5" fill="#e6edf3" text-anchor="middle" font-weight="700">microSD</text>
<text x="103" y="142" font-family="'Segoe UI',Helvetica,Arial,sans-serif" font-size="11" fill="#9aa4b2" text-anchor="middle" font-weight="400">FAT32</text>
<path d="M210 108 q0 -8 8 -8 h22 l8 8 h104 q8 0 8 8 v22 q0 8 -8 8 h-134 q-8 0 -8 -8 z" fill="#161b22" stroke="#FF8A1A" stroke-width="1.5"/>
<text x="226" y="125" font-family="'JetBrains Mono','Consolas','Courier New',monospace" font-size="12.5" fill="#e6edf3" text-anchor="start" font-weight="600">samples/</text>
<line x1="190" y1="128" x2="190" y2="128" stroke="#30363d" stroke-width="1.5" stroke-linecap="round"/>
<line x1="190" y1="128" x2="210" y2="128" stroke="#30363d" stroke-width="1.5" stroke-linecap="round"/>
<path d="M270 160 q0 -8 8 -8 h22 l8 8 h64 q8 0 8 8 v22 q0 8 -8 8 h-94 q-8 0 -8 -8 z" fill="#161b22" stroke="#36C24A" stroke-width="1.5"/>
<text x="286" y="177" font-family="'JetBrains Mono','Consolas','Courier New',monospace" font-size="12.5" fill="#e6edf3" text-anchor="start" font-weight="600">0/</text>
<line x1="230" y1="136" x2="230" y2="170" stroke="#30363d" stroke-width="1.5" stroke-linecap="round"/>
<line x1="230" y1="170" x2="270" y2="170" stroke="#30363d" stroke-width="1.5" stroke-linecap="round"/>
<rect x="400" y="114" width="116" height="24" rx="5" ry="5" fill="#1b2230" stroke="#30363d" stroke-width="1"/>
<text x="410" y="130" font-family="'JetBrains Mono','Consolas','Courier New',monospace" font-size="11" fill="#e6edf3" text-anchor="start" font-weight="400">_1.wav</text>
<line x1="380" y1="170" x2="400" y2="126" stroke="#30363d" stroke-width="1" stroke-linecap="round"/>
<rect x="400" y="142" width="116" height="24" rx="5" ry="5" fill="#1b2230" stroke="#30363d" stroke-width="1"/>
<text x="410" y="158" font-family="'JetBrains Mono','Consolas','Courier New',monospace" font-size="11" fill="#e6edf3" text-anchor="start" font-weight="400">_2.wav</text>
<line x1="380" y1="170" x2="400" y2="154" stroke="#30363d" stroke-width="1" stroke-linecap="round"/>
<rect x="400" y="170" width="116" height="24" rx="5" ry="5" fill="#1b2230" stroke="#30363d" stroke-width="1"/>
<text x="410" y="186" font-family="'JetBrains Mono','Consolas','Courier New',monospace" font-size="11" fill="#e6edf3" text-anchor="start" font-weight="400">…</text>
<line x1="380" y1="170" x2="400" y2="182" stroke="#30363d" stroke-width="1" stroke-linecap="round"/>
<rect x="400" y="198" width="116" height="24" rx="5" ry="5" fill="#1b2230" stroke="#30363d" stroke-width="1"/>
<text x="410" y="214" font-family="'JetBrains Mono','Consolas','Courier New',monospace" font-size="11" fill="#e6edf3" text-anchor="start" font-weight="400">_99.wav</text>
<line x1="380" y1="170" x2="400" y2="210" stroke="#30363d" stroke-width="1" stroke-linecap="round"/>
<path d="M270 260 q0 -8 8 -8 h22 l8 8 h64 q8 0 8 8 v22 q0 8 -8 8 h-94 q-8 0 -8 -8 z" fill="#161b22" stroke="#36C24A" stroke-width="1.5"/>
<text x="286" y="277" font-family="'JetBrains Mono','Consolas','Courier New',monospace" font-size="12.5" fill="#e6edf3" text-anchor="start" font-weight="600">1/</text>
<line x1="230" y1="136" x2="230" y2="270" stroke="#30363d" stroke-width="1.5" stroke-linecap="round"/>
<line x1="230" y1="270" x2="270" y2="270" stroke="#30363d" stroke-width="1.5" stroke-linecap="round"/>
<rect x="400" y="228" width="116" height="24" rx="5" ry="5" fill="#1b2230" stroke="#30363d" stroke-width="1"/>
<text x="410" y="244" font-family="'JetBrains Mono','Consolas','Courier New',monospace" font-size="11" fill="#e6edf3" text-anchor="start" font-weight="400">_100.wav</text>
<line x1="380" y1="270" x2="400" y2="240" stroke="#30363d" stroke-width="1" stroke-linecap="round"/>
<rect x="400" y="256" width="116" height="24" rx="5" ry="5" fill="#1b2230" stroke="#30363d" stroke-width="1"/>
<text x="410" y="272" font-family="'JetBrains Mono','Consolas','Courier New',monospace" font-size="11" fill="#e6edf3" text-anchor="start" font-weight="400">…</text>
<line x1="380" y1="270" x2="400" y2="268" stroke="#30363d" stroke-width="1" stroke-linecap="round"/>
<rect x="400" y="284" width="116" height="24" rx="5" ry="5" fill="#1b2230" stroke="#30363d" stroke-width="1"/>
<text x="410" y="300" font-family="'JetBrains Mono','Consolas','Courier New',monospace" font-size="11" fill="#e6edf3" text-anchor="start" font-weight="400">_199.wav</text>
<line x1="380" y1="270" x2="400" y2="296" stroke="#30363d" stroke-width="1" stroke-linecap="round"/>
<path d="M270 340 q0 -8 8 -8 h22 l8 8 h64 q8 0 8 8 v22 q0 8 -8 8 h-94 q-8 0 -8 -8 z" fill="#161b22" stroke="#36C24A" stroke-width="1.5"/>
<text x="286" y="357" font-family="'JetBrains Mono','Consolas','Courier New',monospace" font-size="12.5" fill="#e6edf3" text-anchor="start" font-weight="600">2/</text>
<line x1="230" y1="136" x2="230" y2="350" stroke="#30363d" stroke-width="1.5" stroke-linecap="round"/>
<line x1="230" y1="350" x2="270" y2="350" stroke="#30363d" stroke-width="1.5" stroke-linecap="round"/>
<rect x="400" y="322" width="116" height="24" rx="5" ry="5" fill="#1b2230" stroke="#30363d" stroke-width="1"/>
<text x="410" y="338" font-family="'JetBrains Mono','Consolas','Courier New',monospace" font-size="11" fill="#e6edf3" text-anchor="start" font-weight="400">_200.wav</text>
<line x1="380" y1="350" x2="400" y2="334" stroke="#30363d" stroke-width="1" stroke-linecap="round"/>
<rect x="400" y="350" width="116" height="24" rx="5" ry="5" fill="#1b2230" stroke="#30363d" stroke-width="1"/>
<text x="410" y="366" font-family="'JetBrains Mono','Consolas','Courier New',monospace" font-size="11" fill="#e6edf3" text-anchor="start" font-weight="400">…</text>
<line x1="380" y1="350" x2="400" y2="362" stroke="#30363d" stroke-width="1" stroke-linecap="round"/>
<path d="M210 380 q0 -8 8 -8 h22 l8 8 h184 q8 0 8 8 v22 q0 8 -8 8 h-214 q-8 0 -8 -8 z" fill="#161b22" stroke="#9A57E8" stroke-width="1.5"/>
<text x="226" y="397" font-family="'JetBrains Mono','Consolas','Courier New',monospace" font-size="12.5" fill="#e6edf3" text-anchor="start" font-weight="600">1/ … 99/  →  1.wav … 12.wav</text>
<text x="210" y="366" font-family="'Segoe UI',Helvetica,Arial,sans-serif" font-size="11" fill="#9aa4b2" text-anchor="start" font-weight="400">Sample-pack (gestiti dal NI404):</text>
<rect x="210" y="414" width="150" height="24" rx="5" ry="5" fill="#1b2230" stroke="#30363d" stroke-width="1"/>
<text x="220" y="430" font-family="'JetBrains Mono','Consolas','Courier New',monospace" font-size="11" fill="#e6edf3" text-anchor="start" font-weight="400">1.txt … 100.txt</text>
<text x="370" y="430" font-family="'Segoe UI',Helvetica,Arial,sans-serif" font-size="11" fill="#9aa4b2" text-anchor="start" font-weight="400">← le tue song</text>
<rect x="210" y="442" width="150" height="24" rx="5" ry="5" fill="#1b2230" stroke="#30363d" stroke-width="1"/>
<text x="220" y="458" font-family="'JetBrains Mono','Consolas','Courier New',monospace" font-size="11" fill="#e6edf3" text-anchor="start" font-weight="400">autosaved.txt</text>
<text x="370" y="458" font-family="'Segoe UI',Helvetica,Arial,sans-serif" font-size="11" fill="#9aa4b2" text-anchor="start" font-weight="400">← autosalvataggio</text>
</svg>
