<svg xmlns="http://www.w3.org/2000/svg" viewBox="0 0 560 464" width="560" height="464" role="img">
<rect x="0" y="0" width="560" height="999" rx="0" ry="0" fill="#0d1117"/>
<text x="28" y="40" font-family="'Segoe UI',Helvetica,Arial,sans-serif" font-size="22" fill="#e6edf3" text-anchor="start" font-weight="700">Legenda colori delle voci</text>
<text x="28" y="64" font-family="'Segoe UI',Helvetica,Arial,sans-serif" font-size="13.5" fill="#9aa4b2" text-anchor="start" font-weight="400">Ogni riga della griglia è una voce, identificata da un colore (da colors.h).</text>
<line x1="28" y1="78" x2="532" y2="78" stroke="#30363d" stroke-width="1" stroke-linecap="round"/>
<rect x="28" y="100" width="504" height="26" rx="7" ry="7" fill="#161b22" stroke="#30363d" stroke-width="1"/>
<rect x="38" y="105" width="16" height="16" rx="4" ry="4" fill="#E83A3A"/>
<text x="70" y="117" font-family="'Segoe UI',Helvetica,Arial,sans-serif" font-size="13" fill="#e6edf3" text-anchor="start" font-weight="700">Voce 1</text>
<text x="168" y="117" font-family="'Segoe UI',Helvetica,Arial,sans-serif" font-size="13" fill="#e6edf3" text-anchor="start" font-weight="400">rosso</text>
<text x="300" y="117" font-family="'Segoe UI',Helvetica,Arial,sans-serif" font-size="12" fill="#9aa4b2" text-anchor="start" font-weight="400">voce campione</text>
<rect x="28" y="134" width="504" height="26" rx="7" ry="7" fill="#161b22" stroke="#30363d" stroke-width="1"/>
<rect x="38" y="139" width="16" height="16" rx="4" ry="4" fill="#3A6BE8"/>
<text x="70" y="151" font-family="'Segoe UI',Helvetica,Arial,sans-serif" font-size="13" fill="#e6edf3" text-anchor="start" font-weight="700">Voce 2</text>
<text x="168" y="151" font-family="'Segoe UI',Helvetica,Arial,sans-serif" font-size="13" fill="#e6edf3" text-anchor="start" font-weight="400">blu</text>
<text x="300" y="151" font-family="'Segoe UI',Helvetica,Arial,sans-serif" font-size="12" fill="#9aa4b2" text-anchor="start" font-weight="400">voce campione</text>
<rect x="28" y="168" width="504" height="26" rx="7" ry="7" fill="#161b22" stroke="#30363d" stroke-width="1"/>
<rect x="38" y="173" width="16" height="16" rx="4" ry="4" fill="#E8D23A"/>
<text x="70" y="185" font-family="'Segoe UI',Helvetica,Arial,sans-serif" font-size="13" fill="#e6edf3" text-anchor="start" font-weight="700">Voce 3</text>
<text x="168" y="185" font-family="'Segoe UI',Helvetica,Arial,sans-serif" font-size="13" fill="#e6edf3" text-anchor="start" font-weight="400">giallo</text>
<text x="300" y="185" font-family="'Segoe UI',Helvetica,Arial,sans-serif" font-size="12" fill="#9aa4b2" text-anchor="start" font-weight="400">voce campione</text>
<rect x="28" y="202" width="504" height="26" rx="7" ry="7" fill="#161b22" stroke="#30363d" stroke-width="1"/>
<rect x="38" y="207" width="16" height="16" rx="4" ry="4" fill="#36C24A"/>
<text x="70" y="219" font-family="'Segoe UI',Helvetica,Arial,sans-serif" font-size="13" fill="#e6edf3" text-anchor="start" font-weight="700">Voce 4</text>
<text x="168" y="219" font-family="'Segoe UI',Helvetica,Arial,sans-serif" font-size="13" fill="#e6edf3" text-anchor="start" font-weight="400">verde</text>
<text x="300" y="219" font-family="'Segoe UI',Helvetica,Arial,sans-serif" font-size="12" fill="#9aa4b2" text-anchor="start" font-weight="400">voce campione</text>
<rect x="28" y="236" width="504" height="26" rx="7" ry="7" fill="#161b22" stroke="#30363d" stroke-width="1"/>
<rect x="38" y="241" width="16" height="16" rx="4" ry="4" fill="#E83AA6"/>
<text x="70" y="253" font-family="'Segoe UI',Helvetica,Arial,sans-serif" font-size="13" fill="#e6edf3" text-anchor="start" font-weight="700">Voce 5</text>
<text x="168" y="253" font-family="'Segoe UI',Helvetica,Arial,sans-serif" font-size="13" fill="#e6edf3" text-anchor="start" font-weight="400">magenta</text>
<text x="300" y="253" font-family="'Segoe UI',Helvetica,Arial,sans-serif" font-size="12" fill="#9aa4b2" text-anchor="start" font-weight="400">voce campione</text>
<rect x="28" y="270" width="504" height="26" rx="7" ry="7" fill="#161b22" stroke="#30363d" stroke-width="1"/>
<rect x="38" y="275" width="16" height="16" rx="4" ry="4" fill="#A6E03A"/>
<text x="70" y="287" font-family="'Segoe UI',Helvetica,Arial,sans-serif" font-size="13" fill="#e6edf3" text-anchor="start" font-weight="700">Voce 6</text>
<text x="168" y="287" font-family="'Segoe UI',Helvetica,Arial,sans-serif" font-size="13" fill="#e6edf3" text-anchor="start" font-weight="400">verde-lime</text>
<text x="300" y="287" font-family="'Segoe UI',Helvetica,Arial,sans-serif" font-size="12" fill="#9aa4b2" text-anchor="start" font-weight="400">voce campione</text>
<rect x="28" y="304" width="504" height="26" rx="7" ry="7" fill="#161b22" stroke="#30363d" stroke-width="1"/>
<rect x="38" y="309" width="16" height="16" rx="4" ry="4" fill="#FF7A1A"/>
<text x="70" y="321" font-family="'Segoe UI',Helvetica,Arial,sans-serif" font-size="13" fill="#e6edf3" text-anchor="start" font-weight="700">Voce 7</text>
<text x="168" y="321" font-family="'Segoe UI',Helvetica,Arial,sans-serif" font-size="13" fill="#e6edf3" text-anchor="start" font-weight="400">arancione</text>
<text x="300" y="321" font-family="'Segoe UI',Helvetica,Arial,sans-serif" font-size="12" fill="#9aa4b2" text-anchor="start" font-weight="400">voce campione</text>
<rect x="28" y="338" width="504" height="26" rx="7" ry="7" fill="#161b22" stroke="#30363d" stroke-width="1"/>
<rect x="38" y="343" width="16" height="16" rx="4" ry="4" fill="#2AD4B8"/>
<text x="70" y="355" font-family="'Segoe UI',Helvetica,Arial,sans-serif" font-size="13" fill="#e6edf3" text-anchor="start" font-weight="700">Voce 8</text>
<text x="168" y="355" font-family="'Segoe UI',Helvetica,Arial,sans-serif" font-size="13" fill="#e6edf3" text-anchor="start" font-weight="400">turchese</text>
<text x="300" y="355" font-family="'Segoe UI',Helvetica,Arial,sans-serif" font-size="12" fill="#9aa4b2" text-anchor="start" font-weight="400">voce campione</text>
<rect x="28" y="372" width="504" height="26" rx="7" ry="7" fill="#161b22" stroke="#30363d" stroke-width="1"/>
<rect x="38" y="377" width="16" height="16" rx="4" ry="4" fill="#9A57E8"/>
<text x="70" y="389" font-family="'Segoe UI',Helvetica,Arial,sans-serif" font-size="13" fill="#e6edf3" text-anchor="start" font-weight="700">Voce 13</text>
<text x="168" y="389" font-family="'Segoe UI',Helvetica,Arial,sans-serif" font-size="13" fill="#e6edf3" text-anchor="start" font-weight="400">viola</text>
<text x="300" y="389" font-family="'Segoe UI',Helvetica,Arial,sans-serif" font-size="12" fill="#9aa4b2" text-anchor="start" font-weight="400">synth (sawtooth)</text>
<rect x="28" y="406" width="504" height="26" rx="7" ry="7" fill="#161b22" stroke="#30363d" stroke-width="1"/>
<rect x="38" y="411" width="16" height="16" rx="4" ry="4" fill="#E6E6E6" stroke="#000000" stroke-width="1"/>
<text x="70" y="423" font-family="'Segoe UI',Helvetica,Arial,sans-serif" font-size="13" fill="#e6edf3" text-anchor="start" font-weight="700">Voce 14</text>
<text x="168" y="423" font-family="'Segoe UI',Helvetica,Arial,sans-serif" font-size="13" fill="#e6edf3" text-anchor="start" font-weight="400">bianco</text>
<text x="300" y="423" font-family="'Segoe UI',Helvetica,Arial,sans-serif" font-size="12" fill="#9aa4b2" text-anchor="start" font-weight="400">synth (square)</text>
</svg>
